<?xml version="1.0" encoding="utf-8"?>
<!DOCTYPE svg PUBLIC "-//W3C//DTD SVG 1.1//EN" "http://www.w3.org/Graphics/SVG/1.1/DTD/svg11.dtd">
<svg id="svg-sheep-with-map" width="1000" height="824" viewBox="0 0 1000 824" xmlns="http://www.w3.org/2000/svg" version="1.1">
<style>
    .path-b { fill: black; }
    .path-w { fill: white; }
    .path-eye { transform: translateY(var(--eyeup,0)); transition: transform 100ms linear; }
</style>
<path class="path-b" d="M832.5,622.8c6.9-14.1,13.5-27.7,20.7-42.5c-3.6-3.2-8.6-6-11.1-10.3
	c-2.3-3.9-2.1-9.4-3.1-14.8c-33-18.6-65.5-38.8-96.3-62.4c5.8,21.9,11.7,42.8,22,62.3c9.1,17.1,15.7,35.5,23.7,53.2
	c2.4,5.4,5.8,10.5,8.7,15.7c0.7,1.2,1.6,2.3,2,3.6c4.4,11.9,9.3,23.4,17.5,33.5c3.2,3.9,3.5,10.1,6.3,14.3
	c5.9,8.8,12.7,17.1,19.6,26.1c0,0-0.3,1-0.7,1.9c-4.7,13.2-14.6,17.5-28,18c-19.1,0.6-38.2,2.6-57.3,4c-29.7,2.1-58.9,7-87.7,14.2
	c-27.4,6.9-54.8,14-82.4,19.9c-21.8,4.6-44,7.3-66,11.2c-14.6,2.6-29.2,5.7-43.8,8.5c-3.8,0.7-7.8,0.8-11.7,1.3
	c-17.5,2.5-35.2,4.5-52.6,7.6c-16.4,2.9-32.6,6.6-48.7,10.6c-21,5.2-41.9,10.8-62.8,16.5c-7.5,2.1-14.7,5.3-22.2,7.2
	c-9.2,2.4-15.3-2.8-14.4-12c0.5-4.5,2-9,3.7-13.2c7.1-18.9,12.6-38.3,18.3-57.7c5.1-17.5,6.6-35.5,10.7-53c5.1-22,5.7-44.3,8.9-66.4
	c2.8-19.6,2.5-39.8,2.6-59.7c0.1-17.1-1.4-34.1-2-51.2c-0.1-3.1,0.3-6.4,1.1-9.4c1.1-4.3,3.4-7.2,8.8-7.5c11.3-0.6,22.6-2,34-3.2
	c13.7-1.5,27.4-3.2,41.2-4.9c11.9-1.5,23.9-3,35.8-4.6c5.6-0.8,11.2-1.7,16.7-3c21.4-5,42.9-9.6,64.1-15.4
	c19.5-5.3,38.6-11.9,57.9-18c15.2-4.8,30.4-9.7,45.6-14.7c3-1,5.8-2.7,10.3-4.8c-9.3-6.5-17.5-12.3-25.8-18
	c-5.6-3.8-11.9-6.8-16.8-11.4c-11.8-11.2-11-15.8-4.5-25.3c0.4-0.6,1.1-1,1.4-1.6c6.5-11.1,8.7-11.9,19.5-4.5
	c14,9.6,27.5,20.1,41.2,30c7.2,5.2,14.2,10.6,21.8,15.1c2.3,1.4,6.6,1.4,9,0.2c13.8-6.9,27.3-14.3,41.4-21.8
	c4.3,4.4,4.6,10.4,5.7,16.3c2.8,15,5.3,30.1,12.4,43.8c1.4,2.6,3.5,5.3,6,6.8c20.7,13,41.6,25.6,61.4,40.2
	c14.5,10.7,31.2,18.4,46.9,27.5c0.6,0.4,1.4,0.4,2,0.8c4.9,3,9.4,6.8,14.7,8.7c5.2,1.9,11.1,1.8,17.6,2.7
	c5.8-10.2,12-20.9,18.5-32.3c6.2,5.2,11.2,10.1,16.8,14.2c13.2,9.6,27.4,18,40,28.3c10.7,8.7,20.2,18.8,29.4,29.1
	c5.6,6.3,9.9,13.7,14.1,21.1c4,7,5,14.6,4.1,22.8c-1.1,10.1-4.6,19.3-9.5,27.9c-8.7,15.1-29.6,19.5-44.7,18.2
	c-19.8-1.7-37.8-9.6-56.4-14.9c-14.2-4-27.4-11.5-41-17.6C842.8,628.1,838.8,625.9,832.5,622.8z"/>
<path class="path-w" d="M844.5,617.6c5.7,2.1,11.1,3.8,16.4,5.9
	c18,7.5,35.7,15.5,53.9,22.4c9.5,3.6,19.6,6.7,29.6,7.9c17.5,2.2,36.6-7.7,42.6-24.7c6.7-19,0.7-34.7-11-48.3
	c-17.3-20-39.9-34-62.2-47.8c-6.6-4.1-13.7-9.4-22.7-7.7c-2.4,3.5-4.9,7-7.2,10.6c-2.3,3.7-1.8,6.6,2.5,8.6c4.2,1.9,8.3,4,12.3,6.4
	c11.2,6.9,22.2,14.2,29,26c3.3,5.8,6.1,12,9.3,18.3c-1.9,2.3-3.3,5.5-5.5,6.3c-4.9,1.8-10.3,3.5-15.4,3.2
	c-16.6-1-31.5-7.5-45.3-16.5c-3-2-6.5-3.2-9.6-4.7C855.3,595.2,850.1,606,844.5,617.6z"/>
<path class="path-w" d="M760.5,579.1c-4.8,1.6-10,2.9-14.8,5c-9.1,4-18.1,8.3-27,12.8
	c-17.6,9-33.7,19.8-44.1,37.2c-6.1,10.3-12.3,20.7-17.2,31.6c-7.2,16-18.2,28.8-31.1,40.1c-8.2,7.2-18.2,10.9-28.3,14.5
	c-17.1,6.1-34.4,11.7-52.9,11.5c-4.5-0.1-9.3,2.2-13.4,1.3c-23.2-5.1-46.2-5.8-69.3,0.8c-2.2,0.6-4.6,0.3-7.4,0.5
	c-0.4-7.3,5.6-8.6,9.1-9.2c12.6-2.1,25.7-5,38.1-3.6c20,2.3,38.9-3.6,58.5-3.8c1,0,2.1-0.6,3.1-0.7c11.5-1.2,21.5-6.9,31.8-11.5
	c8-3.6,16.9-7.4,22.3-13.8c8.8-10.4,17.2-22.2,22.1-34.8c9.7-25.4,21.3-49.4,36.9-71.6c2.2-3.1,5.4-5.7,8.3-8.2
	c4-3.4,8.3-6.6,12.4-9.9c3-2.5,5.7-5.5,8.9-7.5c9.1-5.6,18.4-10.8,27.7-16c4.2-2.4,8.6-4.4,12.7-6.5c-7-24-17.8-45.6-23.9-69
	c-5.6-21.5-12.6-42.6-15.9-65.8c-10,3.6-20,6.8-29.6,10.9c-23.8,10.3-47.4,20.7-71.8,29.5c-19.8,7-39.7,13.2-60,18.3
	c-20.6,5.2-40.4,13-61.6,16c-14,2-27.5,6.8-41.4,9.3c-15.7,2.8-31.6,4.5-47.4,6.6c-1.8,0.2-3.5,0.4-5.3,0.6c-7,0.9-14,2.2-21.1,2.7
	c-14.9,1.1-29.9,1.9-44.8,2.9c-2.7,0.2-5.5,0.9-8.9,1.4c0,7.3-0.3,14,0.1,20.7c0.5,9.2,2.2,18.3,2.2,27.5c0,12.2-1.2,24.3-1.8,36.5
	c-1,22.4-1.9,44.8-3,67.3c-0.1,1.7-0.8,3.5-1.1,5.2c-1.7,9.4-4,18.7-5.1,28.1c-2.5,22.7-8.9,44.4-14.9,66.3
	c-2,7.2-3.2,14.6-5.8,21.5c-4.5,12.3-9.7,24.3-14.7,36.4c0.9,0.3,1.7,0.8,2.2,0.6c23.8-6.8,47.6-13.7,71.4-20.7
	c25.7-7.5,52.2-10.6,78.6-13.9c15.6-1.9,30.9-4.8,46.1-8.1c13.4-2.9,26.5-7.6,39.9-10.5c14.9-3.2,30.1-5,45-8
	c30.6-6.1,61.1-12.6,91.7-18.8c11.8-2.4,23.9-3.7,35.4-7c19.9-5.7,40.1-8.8,60.4-11.6c6-0.8,11.9-2.1,17.8-3
	c15.1-2.2,30.2-4.4,45.3-6.5c6.3-0.8,12.6-1.2,19.9-1.9c-10.9-20.5-21.6-40.4-32.1-60.3C782.2,620.8,771.8,600.7,760.5,579.1z"/>
<path class="path-b" d="M465,436.9c-6.8-10.4-5.2-24-11.6-34.5c-10.2,2.9-18.6,7.6-28.6,7.6
	c-7.3,0-9.4,7.5-12.4,13.1c-5.6,10.6-10.5,21.7-19.6,30c-4.9-1.5-6.3-4.5-6.2-8.9c0.1-5-0.9-10-0.5-15c1.2-12.2-5.8-22.5-7.3-34.2
	c-0.5-4.1-4-5.6-8.2-4.3c-7.1,2.2-14.3,4.3-21.3,6.4c-3.8,7.1-7.5,14.1-12.5,23.5c-3-6.1-4.9-9.6-6.6-13.3c-1.8-4-3.8-6.8-8.7-8.2
	c-11.2-3.2-22-7.7-33.6-11.9c-4.6,7.4-10,15.9-15.3,24.3c-0.8-0.2-1.7-0.4-2.5-0.6c-1.3-5.1-2.8-10.1-3.7-15.2
	c-2.8-16-5.4-32-7.8-46.6c-10-5.5-18.4-10.1-26.6-14.8c-4.6-2.6-9-5.9-13.8-8.1c-16.7-7.5-26.8-21-33.6-37.1
	c-9.1-21.3-10.1-43.9-3.7-65.7c4.5-15.5,12-30.5,23.3-42.7c5.4-5.8,7-12.3,8-20.1c2.4-18.5,2.8-37.5,11.6-54.8
	c7.1-14,16.1-26,29.5-34.2c8.3-5.1,12.6-12.9,17.2-20.8c4.1-7,7.6-14.5,12.5-20.9c20.8-27.5,46.9-36.4,78.7-25.3
	c9.4,3.3,19,5.7,28.4,8.8c3,1,6.3,2,8.6,4c8.4,6.9,16.5,14.3,25.5,22.2c-0.9-0.1-0.5,0.1-0.2,0c17.8-12.5,34.5-5.9,51,2.8
	c14.7,7.8,25.9,19.8,36.6,32.2c6.2,7.2,12.4,14.4,18.8,21.4c1,1.1,3,1.7,4.6,1.9c38.8,4.7,58,47.5,48.7,79.5c-0.1,0.3,0.1,0.7,0.1,1
	c12.2,11.2,23,10.9,35.4,0.8c8.9-7.3,18-15.2,31.1-14.7c11.6,0.5,23.1,4.1,26.4,22.2c1.5,8.3,4,16.3,6,24.2
	c-13.4,8.2-15.2,7.4-26.4-0.2c-11.1-7.4-22.6-15.4-37.3-13.8c-1.3,0.1-2.6,0.7-4.6,1.4c2.7,6.7,5.7,12.7,7.7,19
	c5.3,16.5,4.5,33.3,1.8,50.2c-3.7,23.9-21.7,36.5-38.8,49.5c-12.4,9.4-26.7,14.5-42.3,16c-2.8,0.3-5.5,1.6-8.3,1.7
	c-7.2,0.3-10.4,4.5-14.3,10.4c-4.5,6.8-11.9,12-18.7,17c-4.5,3.3-7.2,6.3-8.7,12.3c-2.3,9.8-7.3,19-11.1,28.4
	c-3.1,7.9-6.3,15.7-9,23.7C470.8,432.5,471.1,432.6,465,436.9z"/>
<path class="path-w" d="M443.6,266.1c-1.9,9.2,1.8,16.2,6,24c3.1,5.8,8.8,5.6,12.1,9.4
	c4.3,4.9,9.9,6.7,16,7.5c21.2,2.8,37.9-6.6,53-20c1.8-1.6,2.7-4.2,3.7-6.4c1.5-3.6,2.6-7.4,4.2-10.9c8.7-20.5,12-41.1,3.1-62.7
	c-2.3-5.5-5.2-9.9-9.3-13.9c-5.6-5.6-12.9-4.7-19.8-6.2c-12.2-2.5-22.4,0.6-31.5,8.3c-4,3.4-7.2,7.8-11.2,11.2
	C451.6,222.2,448,244.4,443.6,266.1z"/>
<path class="path-w" d="M544.5,277.7c3.3,3.7,5.7,7.2,8.9,9.9c4.3,3.6,8.7,8.4,13.7,9.5
	c22,5,40.7-9.2,47.7-28.2c5.5-15,4.3-30.8,0.7-46.1c-2.7-11.3-9.8-20.2-18.3-28.1c-5.6-5.3-12.9-2.3-19.3-3.7
	c-12.4-2.6-21,3.8-29.4,10.7C560.5,228.4,554.9,253.4,544.5,277.7z"/>
<path class="path-b" d="M136.2,410.4c12.2,2.2,24.5,3.9,36.6,6.6c12.9,2.9,22.1,12.5,32.5,19.7
	c24,16.4,41.6,38.7,55.1,64c4.7,8.9,6.5,19.4,9.5,29.2c0.4,1.4,0.6,2.8,1.2,4.1c9.8,24,2.6,44.7-11.9,64.2c-3.4,4.5-6.9,9-10.2,13.6
	c-19.9,27.7-45.7,49.1-73.2,68.7c-1.2,0.8-2.4,1.5-3.4,2.6c-7.8,8.7-17.6,7.9-27.7,5.8c-20.6-4.2-40.5-10.6-59.4-19.8
	c-6.2-3-12.3-7.7-16.6-13c-9.5-11.8-20.8-22.5-27-36.7c-9.5-21.8-23.3-41.6-29.6-64.9c-3-10.9-6.5-21.7-10.8-32.2
	c-2.5-6-1.1-10.5,2.2-14.8c13.7-17.8,29-34.1,46.5-48.3c3.9-3.1,7.4-6.8,10.6-10.6c9.3-11.1,20.9-19.4,33.4-26.2
	C106.9,415.4,120.7,410.3,136.2,410.4z"/>
<path class="path-b" d="M393.2,674.5c-19.5,3.9-37.8-11.5-36.7-29.3c0.6-8.4,4.4-14.8,11.4-19.4
	c10-6.6,19.9-13.5,32.6-13.9c-2.6-7.9-2.6-7.9-11.3-10.6c0.6-8.6,10.6-7.7,13-14.8c10.1,5,7.6,14.5,10.8,22.1c6.3,0,13-0.3,19.7,0.1
	c14.9,0.9,26.5,14.7,24.2,29.1c-0.4,2.9-2.2,5.7-3.9,8.2c-1.8,2.6-4.2,4.7-6.5,7.3c2.1,2.5,4,4.6,5.8,6.8
	c9.4,11.2,8.8,28.2-1.7,38.3c-3.8,3.7-7.9,7.5-12.6,9.7c-13,6.4-29.7,2.2-39.8-8.5C391.8,692.4,391.8,684.1,393.2,674.5z M438,699.4
	c2.9-2.5,6.4-5.5,8.8-7.6c0-5.8-0.4-10.5,0.1-15.1c1-8.8-1.1-16.1-8.9-21.1c-0.4-0.2-0.2-1.3-0.3-2c10.1-11.4,11.7-22.4,4.7-32.5
	c-4.7-6.7-14.4-8.1-26.7-3.4C420.8,645.1,425.6,672.6,438,699.4z"/>
<path class="path-b" d="M550.8,635.5c0.4,0.2,0.1,0-0.2-0.1c-14.1-3.4-21-9.9-22.3-20.8
	c-1.5-13.4,4.4-24.5,16.5-30.6c4.7-2.4,9.6-4.4,15-6.9c-3.7-8.3-9.5-11.8-18-10.6c-1.8-4.8-1.4-8,3.8-9.3c1-0.2,2.1-0.4,3.1-0.9
	c18.1-8.6,16.4-8.8,24.3,13.5c0.2,0.7,0.5,1.3,0.6,1.4c8.3-1.6,16.5-4.2,24.7-4.6c12.1-0.7,27.1,12,29.8,23.6
	c1.3,5.6-1.3,9.7-5.2,13.2c-4.3,3.8-5.6,6.8-1.9,12.7c7.4,11.7,2.9,23.5-3.6,34c-7.5,12-20,18.3-33.2,18.8c-12,0.5-24.4-4-31.1-15.4
	C550.5,649.2,551.6,642.6,550.8,635.5z M576.8,580.4c6.6,23.9,13.1,47.3,20,71.9c8.9-6.3,16.6-11.3,19.4-20.8c0.7-2.4,1.1-5.6,0-7.6
	c-2.7-4.8-6.4-9-10-13.8c0.8-0.8,1.7-2,2.9-2.6c5.1-2.5,7.6-6.4,6.6-12c-1.1-5.9-3.9-10.5-10.2-12.5
	C596.7,580.3,587.9,577.7,576.8,580.4z"/>
<path class="path-b" d="M477.8,567c-3.2,8.4-5.9,15.2-9,23.3c-3.9-1.3-7.9-2.1-11.6-3.9
	c-6.5-3.1-7-5.4-2.4-11.2c4.1-5.3,8.7-10.2,13.5-15.8c-5.5-4.3-10.1-8-14.9-11.7c-0.8-0.6-2.4-0.8-2.7-1.5c-1.1-2.7-3.1-6.1-2.4-8.3
	c1.3-3.8,5.3-2.7,8.3-1.3c3.8,1.9,7.3,4.4,11.1,6.4c2.4,1.3,5.1,2.2,7.5,3.2c7.6-6.3,9.2-19.6,23.5-18.2c-4.2,8.7-8.1,16.5-12,24.6
	c7.4,8.9,21.5,10.1,24.3,23.8c-1.9,1.6-3.9,3.5-6.2,5.2c-4.3,3.1-8.4,3.1-12.4-0.9C488.3,576.4,483.7,572.4,477.8,567z"/>
<path class="path-b" d="M636.8,498.2c4-9.5,14.4-9.6,17.9-18.8c3-8.1,0.9-15.9,4.3-23.9
	c1.9,4.7,3.7,9.3,5.7,14.2c12.3,0.9,24.7,5.5,36.5-2.3c3.4,7.3-2.9,6.3-5.5,8.1c-2.9,2-6.2,3.4-8.1,4.4c-2,6.5-2.9,12.2-5.4,17.1
	c-4.9,9.8-5.2,9.6-0.8,21.1c1.6-1,3.2-2,4.9-3c3.9,8.1,3.6,15.7-1.1,22c-4.6-5.4-9.3-10.6-13.6-16.1c-1.3-1.7-4.5-4.2,1.4-6
	c2.8-0.8,0.7-5.6-2.3-7.2c-6.2-3.3-12.3-7-18.9-9.2C647.6,497.1,642.8,498.2,636.8,498.2z M673.5,495.1c0.9,0.1,1.8,0.3,2.7,0.4
	c1.1-3.4,2.2-6.9,3.2-10.3c-0.6-0.4-1.2-0.7-1.8-1.1c-2.3,1.3-4.6,2.6-6.9,3.9C671.8,490.7,672.7,492.9,673.5,495.1z M658.6,494.4
	c2.6,3.9,5.3,6.6,10.3,4.4C667.4,492.7,664.3,490.9,658.6,494.4z M663.9,480.9c-5-1-6.9-0.2-6.1,5.4
	C660.1,484.3,661.6,483,663.9,480.9z"/>
<path class="path-b" d="M973.4,607.3c2.3-12.4-7.5-18.5-14.5-27.1c9.4-1.4,12.6,5,15.8,9.7
	C978.2,595.2,978.7,601.6,973.4,607.3z"/>
<path class="path-b" d="M960.4,590.9c6,2.3,6.7,6.9,7.6,11.3C963.6,600,960.7,596.8,960.4,590.9z"/>
<path class="path-b path-eye" d="M492,279.7c0.2-9,7.1-15.4,15.9-15c6.2,0.3,13.6,8.3,13.2,14.4
	c-0.4,7.2-8.6,15.4-15.5,15.5C498.3,294.7,491.8,287.5,492,279.7z"/>
<path class="path-b path-eye" d="M592.2,274.4c-0.1,6.9-7,14.1-13.3,13.8c-6.7-0.4-12-6.7-11.8-13.9
	c0.3-7.4,5.9-13.1,12.7-13C586.8,261.4,592.3,267.2,592.2,274.4z"/>
<path class="path-w" d="M376.9,72c-0.4-0.4-0.7-0.8-1.1-1.2c1.3-1.8,2.3-4,4-5.2
	c6.2-4.4,13.2-7.3,20.9-7c4.6,0.2,6.7-1.5,7.4-5.6c1.3-7.4-6-22.1-12.8-26.6c-15.7-10.6-33.9-14.6-51.8-18.3
	c-9.7-2-20.3-1.8-28.4,7.6c-12,13.9-20.8,29-23,47.5c-71.5,25.2-76.6,76.6-59.5,117.8c22.6-24.5,22.9-24.7,36.3-20.5
	c-2.6,1.7-4.3,3.4-6.2,4c-5.9,1.9-10.6,4.9-14.7,9.9c-9.9,12.1-13,25.8-12.2,40.8c0.3,6.4,1,12.9,1.6,20.8c-2.4-1.7-4.2-2.2-4.5-3.2
	c-3.5-11.6-7.2-23.1-3.2-35.4c2.5-7.8-1-11.5-9-9.8c-2.4,0.5-5,1.3-6.8,2.7c-9.7,7.9-16.2,18.3-20.2,29.7
	c-2.8,7.9-4.2,16.7-4.1,25.1c0,9.5,2,19,3.9,28.4c2.7,13,7.8,24.8,17.4,34.8c6.2,6.5,14.2,7.7,21.3,11.6c5.7,3.1,11.4,3.6,17.2,1.9
	c2.7-4.7-0.6-12.2,7.1-14.1c0.4,1.1,0.8,1.8,0.9,2.4c1.9,27.1,15,48.8,34.7,66.2c7.4,6.5,17.7,10.8,27.3,13.5
	c16.7,4.5,33.1-1.3,49.8-3.9c-3.2-7.1-7.7-11.3-13.6-15.2c-7.9-5.3-14.5-12.3-21.6-18.8c-2.4-2.2-4.1-5-1.1-10.1
	c10.6,10.6,20.2,22.4,36,24.6c15.1,2.1,30,4,46-2.9c-10.4,17-26.7,11.2-41.8,13.8c5.7,5,9.2,9.2,13.6,11.9
	c17.5,10.6,36.2,14.5,56.1,7.8c14.5-4.9,24.8-16,37.4-24.8c-5.9-2.3-12.5-2.1-13-11.1c23.6,5.4,37.4-7.7,50.4-24
	c-13.1-3.9-25.2-6.9-36.8-11c-15.2-5.3-27.6-15.2-37.1-27.8c-7.9-10.5-10.7-22.8-9.3-36.3c2-19.3,6.1-37.8,17.2-54.1
	c1.1-1.6,1.2-3.7,1.6-5.1c-6.7-2.4-12.7-4.2-18.6-6.7c-5.8-2.5-11.1-2.1-16.2,1.2c-3,1.9-5.7,4.3-8.6,6.4
	c-5.8,4.1-11.4,8.8-17.7,11.8c-9.4,4.6-15.8,1.2-18.8-8.7c-1.8-5.8-1.9-11.3-0.5-17.5c3.7-16,16-27,32.4-26.8
	c16.4,0.2,28.9,8.7,39.4,20.4c4.9,5.5,9,11.9,17.3,14.1c15.2-18.6,37.3-19.2,58.2-21.3c18.3-1.9,36.9-0.4,56.2-0.4
	c2.6-10.3,1.5-20.8-4.3-29.5c-8.1-12-17.1-23.4-30.4-30.8c-12.6-7-22.3-7.1-33.9,2.1c-1,0.8-2.2,1.2-4.3,2.3
	c-0.9-8.4,6.6-10.3,9.9-15.5c-2-6.2-2.9-13.3-6.2-18.9c-9.1-15.4-20.5-29.2-37-37.1c-7.8-3.7-15.5-9.5-25-8
	c-13.4,2.3-24.6,8.4-32.1,20.1c10.6,9.5,27.1,12.1,31.4,30.7c-3.2-1.9-4.6-2.7-5.9-3.6c-9.2-6-18.1-12.5-27.6-18.1
	c-9.3-5.5-19-4.4-28.3,0.7C380.6,70.7,378.7,71.2,376.9,72z"/>
<path class="path-w" d="M865.7,550.1c2.2-4.8,3.6-9.2-3.2-12.3c-2.3,3-4.1,6.8-7.1,8.8
	c-5.9,4.2-2.8,10.1-4.1,15.1c-2.1,8.1,4.9,9.4,8.8,12.7c3.1,2.7,7.5,3.9,11.4,5.7c2.5,1.2,5.6,2,7.6,3.8
	c13.2,12.3,28.9,13.8,46.9,11.8c-5.6-21.4-22.8-30.7-38.5-42.8c-1,7.4,9.4,6.1,7.5,13.9C885.1,561.2,875.9,556,865.7,550.1z"/>
<path class="path-w" d="M734.9,467.2c-1.7,9.7,1.3,15.6,9.2,19.2c4.2,1.9,8.2,4.3,12,6.9
	c9.9,6.8,19.5,14,29.6,20.6c13.6,8.8,27.6,17.2,41.4,25.7c5.9,3.6,11.9,7,17.7,10.4c3.9-3.9,2.9-6.4-0.3-8.7
	c-4.6-3.3-9.1-6.8-13.8-9.9c-22.4-14.9-44.8-29.7-67.2-44.7C754.2,480.4,744.9,474,734.9,467.2z"/>
<path class="path-w" d="M648.5,414.7c-21.3-11.4-39.5-23.6-55.7-38.5
	c-0.8-0.7-1.6-1.5-2.5-1.9c-3.4-1.6-7.2-2.6-9.6,1.2c-2.1,3.5-2.5,7.5,1.2,10.7c1.6,1.4,3.4,2.6,5.2,3.7c9,5.7,18,11.3,26.9,17.2
	c7,4.6,13.8,9.6,20.8,14.4C638.8,419.5,642.6,417.6,648.5,414.7z"/>
<path class="path-w" d="M222.7,478.9c-11.5-11.9-19.5-26-34.9-32.1
	c-4.5-1.8-9.2-3.2-13.5-5.2c-14.1-6.6-28.8-10-44.4-9.4c-8.4,0.3-16.6,0.9-25.1,2.4c-9.9,1.8-17.9,5.6-23.5,13.1
	c-9.6,13.2-18.3,27.2-21,43.7c-1.3,8-3,16.3-2,24.2c2,15.9,9.1,30.4,15.4,45c4.7,11.1,13.2,19.3,19.9,28.9
	c10.8,15.4,23.7,28.3,40.4,37.1c18.8,9.8,38.5,14.4,59.4,7.6c6.4-2.1,12-6.2,18.2-8.8c19.7-8.2,33.2-22.8,43.4-41
	c7.5-13.3,8.7-26.9,2.8-40.8c-3.9-9.1-8.2-18.1-12.8-26.9c-5.8-11.2-11.9-22.1-18.6-34.4c-13.9,21.3-20,44.1-30.3,64.6
	c-15-2.5-19.5-18.7-33-22c-9.9,17.2-19.5,34.1-30,52.3c2.9-0.8,4-0.9,4.8-1.4c15.7-8.1,31.4-16.4,47.2-24.4c2-1,4.7-0.5,7.1-0.7
	c-6.4,5.3-12.9,8.8-19.2,12.5c-14.8,8.6-29.4,17.4-44.3,25.7c-3.7,2.1-7.9,5.4-13.1,1.2c1.3-2.8,2.5-5.8,4.1-8.5
	c11.9-20.2,23.9-40.3,36-60.4c1.4-2.4,3.4-4.7,5.7-6.1C181.6,503.2,201.8,491.3,222.7,478.9z"/>
<path class="path-w" d="M160.1,674.4c9.7,1.8,28-11.6,45.7-33.3
	c-8.1,2.6-16.1,1.7-22.1,8.1c-6.9,7.5-14.5,14.4-21.7,21.6C161.2,671.6,160.8,673,160.1,674.4z"/>
<path class="path-w" d="M53,467.7c-13.3,13.2-26.2,25.9-38.9,38.8
	c-1.1,1.1-0.7,3.6-1.2,7.2c6.9-4.9,13-8,17.5-12.6C39.6,491.6,54.4,485.8,53,467.7z"/>
<path class="path-w" d="M106.4,621.3c-10.3,7.8-19.5,14.7-29,21.9
	c3.3,4.3,6.6,6.6,11.1,3.2c7.6-5.8,15-11.8,22.4-17.9c0.7-0.6,1.1-1.7,1.8-2.9C110.6,624.2,108.6,622.8,106.4,621.3z"/>
<path class="path-w" d="M19.4,542.4c1.6,0.1,2.6,0.5,3,0.2c8.6-6.2,17.3-12.3,25.6-18.8
	c3-2.4,3.8-5.8,0.9-9.2C37.9,518.5,22.6,532.8,19.4,542.4z"/>
<path class="path-w" d="M138.1,670.3c7.4,3.5,11.7,4.5,16.1-1c3-3.8,7.8-6.1,11.1-9.7
	c2.8-3.1,7.7-5,8-10.4C157.2,649.4,151.3,663.8,138.1,670.3z"/>
<path class="path-w" d="M93.3,652.1c2.3,4.4,4.5,4.3,7.4,2.4c8.7-5.6,18.4-9.8,25.2-19
	c-2.8-1.6-5.1-3-7.4-4.3C109.9,638.4,101.9,645.1,93.3,652.1z"/>
<path class="path-w" d="M50.2,496.7c-0.7-0.5-1.4-1.1-2.1-1.6c-11.3,10.9-25,19-36,32.1
	c2.8,0.5,4.7,1.4,5.4,0.8c11-9,21.9-18.1,32.6-27.4C50.7,500,50.2,498,50.2,496.7z"/>
<path class="path-w" d="M25.6,557.6c20.1-11.7,24.1-15.6,26.1-25.3
	C36.6,536.4,25.8,546.4,25.6,557.6z"/>
<path class="path-w" d="M71.9,636.7c0.7,0.1,1.6,0.7,2,0.4c8.4-6.4,16.9-12.8,25-19.5
	c0.9-0.7-0.2-3.8-0.4-6.3C80.7,619.5,71.7,628.4,71.9,636.7z"/>
<path class="path-w" d="M34.1,580.9c0.9,1.1,1.8,2.1,2.6,3.2c8.8-6.8,17.8-13.5,26.4-20.6
	c1-0.8,0.4-3.7,0.6-7.8C51.3,563.3,40.5,569.6,34.1,580.9z"/>
<path class="path-w" d="M153.7,649.1c-15.6-4.7-20.5,8.3-30.4,13.9
	C132.9,668.3,135.5,667,153.7,649.1z"/>
<path class="path-w" d="M43.1,595.7c5.2-3.8,9.9-7.3,14.6-10.7c4.7-3.4,9.4-6.9,15-11
	c-9.2-6.5-13.2,2-18.1,4.8C44.7,584.4,41.7,589.3,43.1,595.7z"/>
<path class="path-w" d="M53.5,614.4c8.3,1.5,11.6-0.5,24-13.7c2-2.1,5.9-3.7,3.7-9.3
	C71.5,599.4,62.5,606.9,53.5,614.4z"/>
<path class="path-w" d="M77.9,584.1c-13.8,1.8-28.9,14.3-29.1,24.1
	C58.6,600.2,67.5,592.7,77.9,584.1z"/>
<path class="path-w" d="M29.2,568.8c0.7,0.8,1.4,1.6,2.2,2.4c8.6-7.1,17.2-14.1,25.6-21.4
	c0.8-0.7,0.1-3.2,0.1-6.4C47.1,552.5,35.5,557.8,29.2,568.8z"/>
<path class="path-w" d="M63.8,624.2c0.5,0.5,1.1,0.9,1.6,1.4c2.8-2.1,5.6-4.3,8.4-6.4
	c3.4-2.5,6.8-5,10.1-7.6c2.9-2.2,6.7-4,4.7-10.1c-8.2,6.4-15.9,12.2-23.4,18.2C64.2,620.5,64.3,622.7,63.8,624.2z"/>
<path class="path-w" d="M109,658.5c0.2,0.9,0.4,1.7,0.6,2.6c2.5-0.6,5.7-0.5,7.5-2
	c6.1-5.2,13.7-9,18.3-17.1c-2-0.2-3.3-0.8-3.8-0.4C124,647.2,116.5,652.9,109,658.5z"/>
</svg>
