<?xml version="1.0" encoding="utf-8"?>
<!-- Generator: Adobe Illustrator 16.0.0, SVG Export Plug-In . SVG Version: 6.00 Build 0)  -->
<!DOCTYPE svg PUBLIC "-//W3C//DTD SVG 1.1//EN" "http://www.w3.org/Graphics/SVG/1.1/DTD/svg11.dtd">
<svg version="1.1" id="Layer_1" xmlns="http://www.w3.org/2000/svg" xmlns:xlink="http://www.w3.org/1999/xlink" x="0px" y="0px"
	 width="1100px" height="434px" viewBox="0 0 1100 434" enable-background="new 0 0 1100 434" xml:space="preserve">
<path fill-rule="evenodd" clip-rule="evenodd" d="M0.5,300.9c0.8-3,1.4-6,2.5-8.8c0.8-2.2,2.2-4.2,3.4-6.2c1.9-3.2,4.5-6.1,5.6-9.5
	c7.9-22.7,29-35,51.1-29.1c9.5,2.6,19.2,4.7,28.6,7.7c5.8,1.8,11.2,4.9,16.6,7.3c8-9.7,16.5-19.7,24.6-29.9
	c5.4-6.9,10.1-14.3,15.2-21.4c10.8-15.2,21.7-30.3,32.4-45.6c6.4-9.1,12.4-18.6,19-27.6c6.4-8.8,13.4-17.2,19.9-25.9
	c7.4-9.9,14.6-20,21.5-30.2c1.7-2.5,2.3-5.9,3.5-9c0.6,0.1,1.5,0.3,4.4,0.8c-3.1-3.7-5.3-5.9-7.1-8.5c-1-1.4-1.5-3.3-2.2-4.9
	c2,0.2,4.5-0.4,5.9,0.6c4.8,3.6,10.3,3.8,15.6,3c6.3-0.9,9.2-5.2,8.1-10.4c-0.8-3.7-8.4-7.3-12.8-5.5c-4.8,1.9-7.6,1.2-9.2-4.2
	c-1.3-4.3-3.7-8.3-5.2-11.5c-20.6,0-40.9-0.2-61.1,0c-16.3,0.2-32.6,0.6-48.8,1.3c-4.9,0.2-9.8,1.7-14.8,2.2
	c-1.8,0.2-3.8-0.8-5.7-1.3c5.9-6.1,11.1-11.4,16.3-16.8c0.4,0.2,0.9,0.5,1.3,0.7c-1.7,3-3.3,6-5,9c4.1,1.5,4.1,1.5,9.2-5.2
	c2.5-3.3,4.8-6.6,7.3-9.8c0.7,0.4,1.3,0.8,2,1.1c-2.7,4.9-5.4,9.8-8.1,14.7c5.2,1.6,8.7-0.1,11.3-4.9c2.1-3.8,4.9-7.2,7.6-10.7
	c0.5-0.7,1.9-0.7,4.7-1.7c-4.5,6.6-8,11.7-11.9,17.4c3.2,0,5.9,0,8.4,0c3.9-5.5,7.9-11.1,11.9-16.7c0.7,0.4,1.3,0.8,2,1.2
	c-3,4.7-6,9.4-9.8,15.5c13.4,1.3,14.5-10.7,20.6-16.2c0.5,0.2,1,0.4,1.6,0.7c-1,2.2-1.9,4.5-3.1,6.6c-1.4,2.6-3.1,5-4.7,7.5
	c7.1,2.2,11.3-0.3,14.5-6.1c2.2-3.9,5.4-7.2,8.1-10.7c0.6,0.4,1.1,0.8,1.7,1.2c-1.7,2.4-3.3,4.7-4.9,7.2c-1.7,2.6-3.4,5.3-5.1,8
	c9.3,1.8,11.3,0.8,16-6.5c2-3.1,4.7-5.7,7.1-8.6c0.5,0.3,1,0.6,1.5,1c-2.8,4.4-5.5,8.8-8.4,13.4c6.7,1.2,12.1,1.4,13.8-6.6
	c0.4-2,2.6-3.5,4-5.3c0.5,0.3,1.1,0.7,1.6,1c-1.2,3.1-2.4,6.1-3.6,9.4c6.1,1.9,10.7,0.9,13.4-5.7c1.3-3.3,3.5-6.2,5.8-10.3
	c2.3,7.1-4.3,10.5-4.7,15.6c4.9,1.2,4.9,1.2,21.1-15.4c-2.5,4.8-5,9.6-7.6,14.7c5.8,1.3,10.2,0.9,12.8-5.3c1.4-3.3,4.2-6.1,6.4-9
	c0.6,0.3,1.2,0.6,1.8,0.9c-2.2,4-4.3,7.9-6.6,12.1c10.6,3.1,11.9-6.1,16.3-10.9c1.4-1.6,2.7-3.3,4.1-4.9c0.6,0.4,1.1,0.8,1.7,1.2
	c-3.2,4.7-6.4,9.5-9.7,14.3c13.2,2.3,15.3-9.2,21.1-16.1c0.6,0.3,1.1,0.6,1.7,0.9c-2.6,4.7-5.2,9.3-8,14.2
	c11.8,3.6,11-9.5,18.5-12.2c-2,4-4,8-6.1,12.2c12.2,3.3,13.7-8.3,19.5-13.9c0.5,0.3,0.9,0.5,1.4,0.8c-2.3,4-4.6,8.1-6.9,12.1
	c6.2,1.2,6.2,1.2,19.8-11.9c-2.3,3.7-4.5,7.3-6.8,11c6.4,0.9,7.3,0.4,10.9-4.9c1.8-2.6,3.8-5.1,5.8-7.6c0.5,0.4,1,0.7,1.5,1.1
	c-2,3.5-4,6.9-6.3,10.9c12.3,3.5,14.2-8.7,20.5-13.8c0.4,0.4,0.8,0.7,1.3,1.1c-3,4.2-6,8.5-9,12.8c14.1,4.4,13.5-11.9,22.9-14.4
	c-3.3,4.7-6.7,9.3-10.8,15.2c5.2-1,9.4,0.1,12.3-4.6c2.6-4.1,6.1-7.7,9.2-11.5c0.5,0.3,1.1,0.7,1.6,1c-3.2,4.8-6.4,9.5-9.6,14.3
	c9.1,2.2,11.4-6.5,16.3-11.1c0.4,0.4,0.8,0.8,1.3,1.2c-1.6,2.9-3.3,5.8-4.9,8.7c3.9,1.9,6.4-0.1,8.5-3.4c1.6-2.5,3.3-5,5-7.5
	c0.5,0.4,1.1,0.8,1.6,1.2c-1.5,3.2-3,6.5-4.4,9.5c10.5,4.4,12-7.2,18.1-10.6c0.4,0.4,0.8,0.8,1.1,1.2c-2.3,3.3-4.7,6.5-7.2,10
	c4.3,2.6,7.9,1.8,11-2c2.7-3.4,5.4-6.7,8.1-10.1c0.5,0.3,1,0.7,1.5,1c-2.5,3.8-5.1,7.6-7.5,11.2c13.7,4,15.3-9.4,23.6-14.2
	c-3,4.6-6,9.2-8.9,13.6c8.5,2.3,9.9,1.6,14.6-6.2c2.1-3.6,4.9-6.8,7.3-10.1c0.4,0,0.8,0,1.2,0c-0.2,1.2,0,2.6-0.6,3.5
	c-3,4.6-6.2,9.1-9.8,14.3C467.6,21,467.8,7.9,475.8,4c-2.7,4.5-5.4,9-8.5,14c4.5,0.7,8.7,2.6,11.8-3.2c1.9-3.6,4.7-6.6,7-9.9
	c0.6,0.4,1.1,0.7,1.7,1.1c-2.2,3.7-4.4,7.4-6.6,11.1c2.6,0.5,5.2,1.1,8.1,1.6c3-4.5,6.1-9.1,9.2-13.7c0.5,0.3,1,0.6,1.5,0.9
	c-2.1,4-4.3,7.9-6.4,11.9c0.3,0.5,0.6,1.1,0.9,1.6c3.9-0.9,8.5-0.8,11.5-2.9c3.2-2.2,5-6.5,7.4-9.9c0.5,0.2,0.9,0.5,1.4,0.7
	c-1.8,3.5-3.6,6.9-5.9,11.5c5.3-1.8,10.3-0.1,13.1-5.6c2-3.9,5.2-7.3,7.9-10.9c0.4,0.3,0.9,0.6,1.3,0.9c-3,4.6-5.9,9.2-8.7,13.5
	c11.7,4.7,14.3-5.5,19.2-11.8c0.4,0.4,0.8,0.8,1.3,1.2c-2,3.4-4.1,6.8-6.2,10.3c11,5,11.7-7.3,19.3-11.5c-3.1,4.8-5.2,8.1-7.4,11.5
	c11.4,3.3,14.4-7.8,20.7-13c0.4,0.5,0.8,1,1.2,1.5c-3.1,3.9-6.3,7.7-9.5,11.6c7.3,2.2,9.1,0.9,18-12.9c0.5,0.3,1,0.6,1.5,0.8
	c-2.3,3.5-4.5,7-7.1,11c1.8,4.4,6.3,2.1,8.3,1c2.5-1.3,3.8-5.1,5.5-7.8c0.5,0.3,0.9,0.5,1.4,0.8c-1.2,2.5-2.4,5-3.7,7.6
	c5.9,2,9.6-0.6,12.7-5.4c1.6-2.5,4-4.5,6-6.8c0.4,0.4,0.8,0.7,1.2,1.1c-2.7,3.6-5.3,7.2-8.1,11c6,1.6,10.1,0.5,12.5-5.3
	c1-2.5,3.6-4.3,5.4-6.5c0.6,0.4,1.1,0.8,1.7,1.2c-2.4,3.5-4.7,6.9-7.1,10.5c13,4.3,14.3-8.7,22-13c-2.8,4.4-5.6,8.7-8.4,13.1
	c10.8,5.3,10.1-8.2,17.9-11c-2.6,4.2-4.5,7.4-6.4,10.5c5.6,4.1,5.6,4.1,18.5-11.9c-1.1,2.3-2.1,4.7-3.5,6.9
	c-1.4,2.2-3.1,4.1-4.8,6.4c12.7,3.9,14.1-8,19.7-13.6c0.5,0.3,1.1,0.6,1.6,0.9c-2.7,4.3-5.3,8.6-8,12.9c0.4,0.6,0.8,1.2,1.1,1.8
	c3.6-1.5,7.8-2.3,10.8-4.7c3.1-2.5,5.1-6.5,7.5-9.9c0.5,0.3,0.9,0.6,1.4,0.8c-2.5,4-5,8-7.6,12.2c9.2,1.4,13.3-4.7,16.9-11.4
	c0.5,0.4,1,0.9,1.4,1.3c-1.8,3.3-3.7,6.5-5.5,9.8c11.8,4.2,12.2-8,19-11.9c-2.2,4.2-4.4,8.5-6.9,13.1c10.1,1.7,13.2-6.1,18.9-10.7
	c-2.1,3.5-4.2,6.9-6.6,10.7c12.8,3.3,12.4-9.7,19.9-13.3c-1.2,2.1-2.3,4.2-3.6,6.2c-1.3,2.1-2.7,4.2-4.2,6.3
	c6.2,3.4,9.5,0.1,12.4-4.1c2.4-3.3,4.7-6.6,7.1-10c0.5,0.3,1,0.7,1.4,1c-3.1,4.5-6.2,8.9-9.7,13.9c3.6,0,6.9,0,10.2,0
	c3.2-4.5,6.5-9.2,9.8-14c0.5,0.3,1.1,0.7,1.6,1c-2.7,4.1-5.4,8.3-8.1,12.5c10.5,5.1,11.2-6,17.6-10.6c-2.3,4.4-3.9,7.5-5.5,10.7
	c6.1,3.3,9-0.8,12.1-4.5c2.2-2.6,4.4-5.3,6.6-7.9c0.4,0.3,0.8,0.6,1.2,1c-2.8,3.5-5.5,7.1-8.3,10.6c3.3,1.9,3.3,1.9,19.5-10.5
	c-2.8,3.8-5.6,7.6-8.6,11.6c4.6,1.7,8.5,0.7,11.8-3.4c2.6-3.3,5.7-6.3,9.6-8.6c-3.2,3.9-6.3,7.8-9.6,11.8
	c10.9,4.6,13.2-7.4,21.2-10.6c-3.2,4.1-5.8,7.3-8.4,10.6c4.7,0.9,4.7,0.9,19.4-10.5c-2.5,3.4-5,6.7-7.5,10.1
	c0.2,0.6,0.4,1.2,0.6,1.8c2.8-1,6.1-1.5,8.4-3.2c2.8-2.1,4.7-5.4,7-8.2c0.4,0.3,0.8,0.6,1.2,0.8c-2.1,3-4.2,6-6.3,8.9
	c8.9,4.8,10.8-4.7,16.5-7.2c-1.4,2.3-2.9,4.7-4.3,7.1c5.5,1.6,5.5,1.6,13.9-5.8c-1.4,2.9-2.1,4.4-2.9,6c9.9,2.3,11.7-8.8,19.6-11.7
	c-3.4,4.3-6.1,7.7-9.2,11.6c9,0,9,0,18.8-9.2c-2.1,2.7-4.1,5.3-6.3,8.1c3.8,0.7,3.8,0.7,14.9-8.2c-2,2.9-3.9,5.8-5.9,8.7
	c0.2,0.5,0.4,1,0.6,1.4c2.7-0.7,5.9-0.9,8.1-2.4c2.8-1.9,4.8-4.9,7.1-7.4c0.4,0.3,0.8,0.7,1.2,1c-2.1,2.6-4.3,5.1-6.8,8.2
	c10,2.8,11.1-7.1,17.1-9.8c-2.1,3.3-4.2,6.6-6.4,10.2c9.5,1.9,10.5-6.9,16-10.5c-2.2,3.6-4.5,7.3-6.7,11c6.4,4.1,8.1-2.7,13-5.5
	c-1.5,2.7-2.3,4.1-3.1,5.5c5.6,2.7,6.7,2,13.3-7.7c-0.4,1.3-0.7,2.6-1.2,3.8c-0.5,1.3-1.2,2.5-1.9,4.1c6.6,5.3,5.8-5.5,10.3-4.4
	c-0.8,1.7-1.7,3.5-2.8,5.7c4,1.3,6.1,0.8,8-2.9c2.4-4.6,6-8.4,9.1-12.6c0.4,0.3,0.8,0.6,1.2,0.9c-3.2,4.8-6.4,9.6-10.6,15.7
	c10.5-1.2,10.8-11,18.1-15.7c-3.6,5.8-6.4,10.2-9.2,14.7c6,0.9,6,0.9,16.2-11.1c-0.7,1.8-1.3,3.6-2.3,5.3c-1.1,1.8-2.5,3.4-3.9,5.3
	c4.7,1.3,4.7,1.3,13.2-6.5c-1.3,2.9-2.2,4.9-3.2,7.2c10.4,2.4,8.7-9,15.5-11.6c-2.5,4.1-4.6,7.6-6.8,11.3c4.7,0,9,0,13.2,0
	c0.2,0.9,0.4,1.9,0.7,2.8c-2,0.6-3.9,1.6-5.9,1.7c-6.6,0.2-13.2,0.1-19.7-0.1c-29.8-0.9-59.5-1.9-89.3-2.9
	c-4.2-0.1-8.4-0.3-12.5-0.8c-6.8-0.9-11.2,1.3-11.6,8.8c7.5,3.7,9.6,7.4,9.5,15c-0.1,5.8-4.7,7.9-8.2,10.2c-3.5,2.2-1.8,4.1-1.5,6.5
	c0.2,1.7-0.1,3.5-0.4,5.2c-1.1,6.5-2.8,12.9-3.2,19.4c-0.8,13.1-1.1,26.3-1.3,39.4c-0.1,6.6,1.2,13.3,1,19.9
	c-0.4,12.7-1.7,25.3-2.1,37.9c-0.4,12-0.1,24-0.3,36c-0.3,18.4-0.6,36.8-1.2,55.3c-0.2,5.8,1.9,8.4,7.8,7.8
	c16.5-1.7,28.8,5.9,39,17.9c2.5,3,13.6,4,17.1,1.9c3.7-2.2,7.3-5,11.3-6.2c5.9-1.8,9.9,1.7,10.3,7.9c0.2,2.8,0,5.7,0,9
	c-7.6,0.1-11.8-10.6-20.7-5.4c13,11.5,5.3,22.7-0.9,33.6c-4.9,8.6-11.2,15.9-22,17.3c-1.1,0.1-2.2,2.5-2.7,4.1
	c-2,6.2-5.3,11.5-10.6,15.4c-7.3,5.4-7.3,13.8-8.9,21.5c-1,4.8-1.3,9.8-2.8,15c-1.4-3.6-2.8-7.3-4.2-10.9c-0.4,0-0.8-0.1-1.2-0.1
	c-1.3,6.4-2.7,12.7-4,19.1c-0.5,0.1-1,0.1-1.5,0.2c-1.4-5.1-2.8-10.2-4.1-15c-5.2,0.7-10.4,1.5-16.7,2.4c-1,4.3-2.2,9.7-3.7,16.2
	c-7.6-5.1-4.7-13.8-8.9-19.7c-1.8,3.4-3.5,6.7-5.2,10.1c-0.5,0-1,0-1.5,0.1c1-12.6-7.4-19.9-14.2-28.4c-5.9-7.4-10-16.3-10.3-26.3
	c-0.1-1.9-0.3-4.2-1.4-5.6c-7-8.5-7.9-18.2-4.4-28c2.7-7.6,7-14.6,10.6-21.8c0.4-0.9,1.2-1.7,1.3-2.6c1.7-17.3,14.5-24,28.5-28.4
	c5.2-1.6,11.5,0.6,17.3,1.1c1.3,0.1,2.5,0.7,4.4,1.3c0-24.5-0.3-48.3,0.1-72.1c0.2-15.1,1.9-30.2,2.2-45.3
	c0.4-19.1-0.1-38.1,0.3-57.2c0.3-11.4,1.6-22.8,2.5-34.6c-1.5-0.2-2.6-0.3-4.7-0.5c1.8-1.5,3-2.5,3.6-3c-0.4-1.1-0.6-2-1.1-2.8
	c-1.1-1.9-1.9-4.1-3.5-5.4c-2.6-2.1-6-3.3-8.6-5.4c-1.8-1.5-2.7-3.9-4-5.9c0.7-0.6,1.4-1.2,2.1-1.9c1.9,1.4,4,2.6,5.5,4.3
	c3.7,4.3,7.1,5,10.9-0.1c1,1.2,1.8,2.2,2.7,3.2c6.2-5.7,5.3-12.1-2-16.8c-2.6-1.6-5.6-3.7-6.7-6.3c-2-4.7-4.8-5.9-9.7-5.9
	c-33.8,0.2-67.5,0.1-101.5,0.1c-0.6,1.8-1.2,3.5-1.8,5.1c12.1,5.4,14.1,20.3,2.5,28.5c-3.6,2.6-3.8,9.2-1.8,11.1
	c-1.2,3.8-2.8,7.1-3.1,10.5c-0.8,9.5-1.2,19-1.3,28.4c-0.2,19-0.1,38-0.1,57c0,18.6,0.5,37.2-0.1,55.7c-0.6,16.8-2.4,33.5-3.5,50.2
	c-0.4,6.8,4.3,12.9,10.5,14.5c0.9,0.2,2,0,2.8-0.5c15.1-7.3,39,9,34.6,30.3c-0.3,1.4,0,3.4,0.9,4.4c10.3,13,5.5,34.3-3.8,44.5
	c-11,12-19.5,25.1-22.7,41.3c-0.3,1.5-1.1,2.9-1.6,4.3c-0.6,0.1-1.1,0.2-1.7,0.2c-1.1-4.3-2.1-8.6-3.2-12.9
	c-0.5-0.1-0.9-0.2-1.4-0.3c-1.9,4.1-3.7,8.2-5.6,12.4c-0.4-0.1-0.9-0.3-1.3-0.4c-0.3-3.8-0.6-7.7-0.9-12.8
	c-7.9,4.4-6.7,13.6-12.3,20.6c-1.8-8.6-3.3-15.9-5.2-25c-3,7-5.4,12.5-7.8,18c-0.5-0.3-1.1-0.5-1.6-0.8c-0.6-3.9-0.8-7.9-2-11.6
	c-0.8-2.5-2.5-5.8-4.6-6.7c-10.9-4.5-14.9-13.4-16.9-24c-9.1,1.6-24.2-6.1-28.1-15.6c-4.8-11.6-4.4-23.5,5.6-32.2
	c-3.9-4.9-7.7-5.1-11.8-1c-1.9,1.9-4.2,3.4-6.5,5.2c-5.8-9-5.7-13.6,0.4-17.5c5-3.3,7.4,1,10.5,2.8c4.4,2.5,8.3,5.8,12.9,9.1
	c0.9-3.4,1.7-5.5,1.9-7.6c1.2-12.3,8.4-18.9,21-19.2c1.9,0,4.1-0.4,5.6-1.5c8.6-6.4,18.4-9.4,29.3-9.5c0.1-1.8,0.2-3.4,0.4-5
	c1.2-14.8,2.5-29.6,3.5-44.4c0.3-4.7-0.4-9.5-0.4-14.2c0.1-12.9,0.4-25.8,0.5-38.7c0.1-11.4,0-22.8,0-34.2c0-11.3-0.3-22.6,0.1-33.9
	c0.4-11.5,1.5-22.9,2.1-34.3c0.1-0.9-1-1.8-1.3-2.8c-0.6-2.3-1.1-4.6-1.6-6.8c0.6-0.3,1.1-0.6,1.7-0.9c-0.9,0.1-1.9,0.1-3.3,0.2
	c0.1-0.8,0.1-1.5,0.4-2.2c0.3-0.7,0.9-1.3,1-1.4c-3.8-1.8-7.6-3.3-11-5.5c-0.8-0.5-0.4-3-0.6-4.6c1.4,0.2,3,0.1,4.3,0.6
	c1.1,0.4,2,1.4,2.7,2.4c2.7,3.3,4.9,3,6.1,0.3c3.3-0.2,7.1,0.6,8.3-0.8c2.7-3.2,5.9-6.9,2.6-12.1c-2.7-4.3-5.5-6.6-10.7-4.4
	c-1.2-2.7-1.7-5.6-3.5-7.5c-2-2.1-5-4.6-7.5-4.7c-40.5-0.7-81.1-1-121.6-1.4c-4.8,0-9.4,0.3-11,6.6c8.7,2.1,14.6,7.1,14.5,16.7
	c0,9.3-7.4,13.2-12.1,16.2c-0.3,5.1-0.3,8.9-0.8,12.6c-0.2,1.8-1.7,3.5-1.7,5.2c-0.1,45.6-0.1,91.2-0.1,136.8c0,20.4,0,40.8,0,61.2
	c0,2.2,0,4.4,0,6.9c6.1-0.4,11.7-0.5,17.2-1c15.1-1.3,23.8,6.2,28,20c0.5,1.7,1.6,3.7,1.1,5.1c-1.4,4,1.2,5.8,3.4,8.1
	c9.4,9.5,14,21.3,15,34.3c0.9,11.4-5.2,20.1-12.1,28.4c-1.4,1.7-2.8,3.6-3.6,5.7c-2.8,7.7-7.7,14-15.5,16.4c-5.2,1.6-5.8,4.7-6.8,9
	c-0.7,2.8,2,7.7-3.6,8.8c-1.7-4.4-3.2-8.3-4.7-12.3c-0.5,0-0.9,0-1.4,0c-1.2,3.7-2.3,7.4-3.6,11c-0.3,0.9-1.3,1.5-2,2.3
	c-0.5-0.7-1.4-1.3-1.6-2.1c-2.3-9.6-2.3-9.6-11.8-10c-2-0.1-3.9-0.2-6.1-0.3c-1.4,5.5-2.8,11.4-4.5,18.4c-6.6-6.7-2.3-15.6-6.6-23.2
	c-2.4,5.9-4.2,10.3-6,14.7c-0.6-0.1-1.1-0.1-1.7-0.2c-0.8-3.3-1.4-6.7-2.4-9.9c-0.6-1.8-1.4-4.6-2.8-5c-9.9-3.3-14.9-10.6-17.4-20.5
	c-6.8,3.2-11.4,0-15.6-4.4c-5.2-5.4-10.4-10.8-15.5-16.3c-8.8-9.7-4.4-24.4,5.2-31.2c0.6-0.4,1-1.2,1.5-1.7
	c-0.2-0.6-0.3-1.2-0.5-1.8c-4.8,1.1-9.5,2.5-14.3,3.3c-2.3,0.4-4.8-0.1-7.2-0.2c0.4-3.2-0.3-7.5,1.5-9.3c5.4-5.5,10.2-4.8,16.5,0.4
	c3.3,2.7,7.1,4.7,11.8,7.8c-1.2-11.7,2-20.5,10.3-26.6c9.5-7,19.4-13.7,29.4-19.9c7.4-4.6,15.5-3.1,23.9,0.2c0-9.1,0-17.5,0-26
	c0-21,0-41.9,0-62.9c0-8.6,0.1-17.2,0-25.8c-0.1-5-1.1-10-1.1-15c0.1-9.9,1-19.8,1-29.8c0-10.8-0.8-21.6-1-32.4
	c-0.1-3.4,1.1-6.8,1-10.1c0-2-1.4-3.9-1.8-5.2c0-4.7,0-8.8,0-13c-3.8-2.3-8.1-4.6-12.1-7.4c-1-0.7-0.8-3-1.1-4.5
	c1.9,0.2,3.9,0.2,5.6,0.8c1,0.3,1.5,1.8,2.3,2.7c1.8,2,3.2,5.1,6.8,1.8c0.8-0.7,3.8,0.9,6,1.5c5.7-4.8,7.5-11.2,4.5-17.2
	c-1.8-3.5-3.7-6.7-8.8-5.2c-1.1,0.3-4-2-4.6-3.6c-4-9.6-6-10.6-16.3-9.2c-3.5,0.5-7.2-0.9-10.7-0.9c-10.9,0.2-21.8,0.7-32.7,0.9
	c-6.7,0.2-13.5,0.1-20.2,0.2c-3.2,0.1-6.4,0.6-9.6,0.7c-4.3,0.1-8.6,0-12.9,0c-16.7-0.2-33.4-0.4-50.1-0.7c-4.4-0.1-6.4,2.4-7.6,6.1
	c2.8,1.3,5.7,2.1,7.9,3.7c10,7.3,9.1,18.7-2.7,25.6c-2.4,1.4-2.3,3.2-1,6.4c0.4,1-0.9,2.8-1.5,4.4c0.4,0.2,1.4,0.7,1.1,0.5
	c-1,2.9-2.4,5.1-2.4,7.2c0.2,19.5,0.5,39.1,1.2,58.6c0.3,8.2,2,16.3,2.2,24.5c0.4,15.1,0.1,30.2,0.2,45.3c0,5.5,0.8,10.9,0.7,16.4
	c-0.1,8.8-0.8,17.6-0.7,26.4c0,7.9-0.5,16.1,1.6,23.4c1.3,4.2,7.2,9.4,11.5,9.9c19.2,2.2,32.9,11,40.6,28.8
	c-2.2,13.9,10.4,22.4,12.7,34.8c2.4,13,1.7,25.6-6.1,36.5c-2.8,3.9-8.4,5.9-12.6,8.9c-5.9,4.3-12.5,7.9-17.1,13.3
	c-2.9,3.5-2.7,9.7-3.9,14.7c-0.8,3.2-1.5,6.4-2.2,9.6c-0.6,0.1-1.2,0.2-1.9,0.2c-1.7-6-3.5-11.9-5.7-19.7c-1.5,4.4-2.4,7.5-3.7,10.5
	c-0.6,1.5-1.7,2.8-2.5,4.2c-0.8-1.4-2.1-2.8-2.3-4.3c-1.1-8.6-1.1-8.8-9.3-8.9c-1.4,0-3.7,1.2-4,2.4c-1.6,5.1-2.6,10.4-3.9,15.6
	c-0.5,2-1.4,4-3.4,5.9c-1.8-7.5-3.6-15-5.6-23.6c-7.6,5.8-5.6,14.9-10.5,23.2c-1.4-6-2.8-10.4-3.4-14.8c-0.7-4.8-2.4-8.3-6.7-11.2
	c-6.5-4.4-10.7-10.7-9.9-19.2c-17-1-36.2-17.7-38.1-34.7c-0.7-6.1,3.1-12.7,5-19.5c-4.4-2.8-7.5,0.4-10.4,5c-2.3,3.7-5,7.1-7.8,11
	c-3.5-4.4-5.6-7.8-8.5-10.6c-3.7-3.6-1.6-6.5,1.2-8.5c4-3,8.5-5.2,12.8-7.6c4.9-2.7,9.2-0.5,13.4,1.9c3.3,1.9,6.6,4,10.7,6.5
	c-0.9-6.2-2-11-2.1-15.9c-0.2-13.6,9.7-23.9,23.4-24.1c4.3-0.1,6.8-1.4,9.2-5.1c8.9-13.8,22.2-16.3,38.1-13.4
	c-0.4-3.3-1.1-6.3-1.1-9.4c-0.1-20.6,0.3-41.3-0.1-61.9c-0.3-17.4-1.7-34.8-2.3-52.2c-0.4-11.1,0.1-22.2-0.2-33.2
	c-0.3-8.6-1.2-17.2-2-25.8c-0.8-10.1-1.8-20.2-2.7-30.7c-2.3-1.2-5.6-2.8-9.1-4.6c4-6.5,6.2-0.7,9.3,0.6c1.4-2.7,3-5.6,6.4-1.8
	c0.4,0.5,3.4-0.2,3.5-0.8c1-3.8,2.8-8.2,1.8-11.6c-1.2-3.9-3.9-8.7-10.5-6c-1,0.4-5.9-4.4-6-6.9c-0.2-5.8-2.9-6.1-7.3-6
	c-23,0.5-45.9,0.6-68.9,1.4c-19.4,0.7-38.7,2.3-58.1,3.5c-4.8,0.3-9.6,1.1-14.4,1.1c-7.1,0-6.5,5.6-7.9,10.4c2,0.6,3.9,1.5,6,1.8
	c7.3,1.3,13.5,7.6,13.3,13.7c-0.2,7.1-6.1,12.9-13.6,14.6c-3.6,0.8-6.8,3.3-10.2,5.1c-0.2,0.1-0.3,0.7-0.4,1c-0.3,2.8-0.6,3-3.2,2.4
	c-0.1,1.9,5.3,6.5-2.2,5.2c-1.2-0.2-3.1,3.3-4.5,5.2c-9.8,13.4-19.5,26.7-29.2,40.2c-12.2,17-24.1,34.2-36.4,51.1
	c-20.1,27.6-40.4,55.1-60.7,82.6c-0.5,0.6-1.1,1.2-1.3,1.4c3.2,7.2,6.1,14.3,9.5,21.1c2.4,4.7,5.1,9.3,8.3,13.5
	c4.8,6.2,6.6,12.8,5.4,20.6c-1,6.7-1.6,13.6-1.4,20.4c0,1.7,3.5,4.1,5.8,4.7c4.2,1.1,8.6,1,13,1.4c7.5,0.6,10.3,4.6,7.6,11.6
	c-1,2.7-2.9,5.3-4.9,7.4c-2.9,3-6.8,2.2-8.7-1.6c-1-1.9-1.6-4.1-2.1-6.2c-1.8-7.4-2-7.7-9.9-9.8c-4,12.4-11.6,17.2-24.8,14.7
	c-8.7-1.6-15.5,1.8-22.9,5.3c-7.7,3.6-9.5,9-9.7,16.4c0,1.7-1.9,3.3-2.9,5c-0.8-1.6-1.8-3-2.4-4.7c-1.1-3.1-1.9-6.3-3.9-9.4
	c-1.4,5.5-2.8,11.1-4.2,16.6c-0.7,0.1-1.4,0.2-2.1,0.4c-2.4-7.4-4.8-14.8-7.1-21.7c-3.5,0-6.1,0-9.9,0c-1,4.6-2.1,9.8-3.3,15.1
	c-6.2,0.1-3.8-4.7-4.4-7.6c-0.7-3.3-1.1-6.7-1.6-10.1c-0.5,0.1-1,0.1-1.5,0.2c-1.5,6.7-3,13.4-4.5,20.1c-0.6-0.1-1.3-0.2-1.9-0.3
	c-2.5-9.4-3.9-19.2-7.8-27.9c-4.1-9.1-5-19.4-11.5-27.9c-4.4-5.8-5.3-14.2-7.8-21.4c-0.2-0.7-0.8-1.2-1.2-1.9
	C0.5,305,0.5,302.9,0.5,300.9z"/>
<path fill-rule="evenodd" clip-rule="evenodd" fill="#FFFFFF" d="M99.6,313.6c-5.8-4-10.7-4.1-16-0.2c-1.5,1.1-4.1,1.8-5.9,1.3
	c-0.9-0.3-1.7-3.6-1.3-5.3c1.6-7.9,13.2-11.5,19.3-6.2c4.2,3.7,8.1,7.8,12.6,10.9c7.3,4.9,15,9.1,22.6,13.6c0-0.4,0-1.7,0.4-3
	c3.4-9.8,1.4-18.6-5.1-26.5c-0.7-0.9-2.1-1.3-3.1-2c-0.2,1.2-0.6,2.4-0.5,3.6c0.3,3,0.9,5.9,1,8.9c0,0.6-1.7,1.3-3.8,2.8
	c3.7-15.9-8.3-20.3-16.7-27.1c0.4-0.4,0.8-0.9,1.2-1.3c5.2,3.6,10.4,7.3,15.7,10.9c0-2.4,0.8-5.2-0.1-7.3c-2.9-6.3-5-14-10-17.9
	c-6.6-5.2-15.4-7.9-23.7-10.6c-7-2.3-15.3-0.9-21.1-7.3c-1.1-1.2-3.7-1.2-5.7-1.4c-14.1-1.5-26.2,1.8-35.5,13.4
	c-4.1,5.1-4.8,5.8-3.3,12.7c7-4.9,13.3-12.3,23.5-7.4c-8.7,0.5-15.8,3.7-20.9,11c-5.5,7.9-4.5,15.8,0.6,24.9
	c-10-5.2-7.1-13.7-8.2-21.3c-1.6,0.9-3.2,1.3-3.9,2.3c-5.3,7-8.7,15-6.5,23.6c2.2,8.4,0.4,20.4,14.3,20.9
	c-2.6,12.3,0.5,23.8,12.3,30.7c8,4.7,12.4,5.4,16.4,2.1c-8.6-6.5-9.9-8.2-9.4-12.8c6.4,8.3,14.2,11.6,24.6,8.9
	c4.6-1.2,9.7-0.2,14.6-0.2c0,0.6,0,1.3,0,1.9c-8.5,0.7-17,1.4-25.9,2.2c12.6,8.2,28.9,7.4,40-2c1-0.8,1.5-4.1,0.8-4.8
	c-5.4-5.3-6.9-11.9-7.9-19C84.1,326.5,89.3,317.1,99.6,313.6z"/>
<path fill-rule="evenodd" clip-rule="evenodd" fill="#FFFFFF" d="M117.7,329.7c0-7.9-5.6-13.1-14-12.9c-7.3,0.1-14.1,6.1-14.1,12.3
	c0,7.4,7.7,14.6,15.4,14.5C112,343.5,117.7,337.2,117.7,329.7z"/>
<path fill-rule="evenodd" clip-rule="evenodd" fill="#FFFFFF" d="M103.1,347.9c2,7,8.2,11.2,14.9,10.4c7.1-0.9,13.1-6.5,13.2-12.3
	c0.1-8.4-2.5-12.1-9.2-13C120.2,340.8,113.4,346.3,103.1,347.9z"/>
<path fill-rule="evenodd" clip-rule="evenodd" fill="#FFFFFF" d="M415.9,400.3c-0.1,0.6-0.2,1.2-0.3,1.8c5.1,1.6,10.2,3.4,15.4,4.7
	c7.7,2,25.3-4.6,28.7-11.8c1.8-3.8,3.8-4.4,7.2-5.2c10.9-2.5,18.4-9,22.1-19.8c3.1-9.2,2.4-18.4,0-27.6c-1.4-5.2-4.9-8.6-10.4-10.2
	c0.2,8.1-3.4,14.3-7.2,15.2c0.9-5.2,3.4-11.3,2.4-16.6c-1-4.9-5.9-9.1-9-13.6c1-0.9,1.9-1.8,2.9-2.6c3.5,3.6,7.1,7.1,10.1,10.2
	c2.8-8.8-0.6-18.9-7.9-26.2c-10.1-10.2-22.3-17.4-37.7-8.1c1.6-8.6,0.9-10.1-6.1-13.1c-16.3-6.9-33.8,1.2-41.2,18.2
	c5.4,0.6,10.9,1.2,16.3,1.8c0.2,1,0.4,2,0.6,3c-14.3-4-24.7,2.5-34.6,11c1.1-2.7,2.9-4.4,4.5-6.2c1.8-2,3.6-4.1,5.4-6.2
	c-5-0.4-10.7-0.8-13.9,1.9c-5.7,4.7-8.1,18.9-2.7,25.7c0.9,1.1,2.9,2.3,4.2,2c14.3-2.5,27.6-1.2,37.8,9.1c5.7-4,10.9-8,16.5-11.3
	c1.6-0.9,5.4-0.3,6.6,1c4.8,5,7.3,11.1,7.3,18.3c0.1,7.1-3.1,10.5-9.2,11c-6,0.5-4.6-5.2-5.5-8.7c-1-3.9-1.1-8.7-6.7-9
	c-2.2-0.1-4.4,0.9-6.7,1.5c7.6,16.1,2.7,25.5-3.9,31.7c-6,5.6-13,10.2-19.9,15.5c0.4,15.4,19.5,26.3,31.2,14.9
	c-3.9-0.2-7-0.4-10.1-0.4c-5-0.1-5-0.1-6.5-4.9c12,6.2,22.8-2.8,34.5-1.1C425.3,397.6,420.6,398.9,415.9,400.3z"/>
<path fill-rule="evenodd" clip-rule="evenodd" fill="#FFFFFF" d="M563.5,336.7c-0.3,0.4-0.7,0.8-1,1.3c3.7,6.1,5.3,12.9,2.3,19.3
	c-4.6,9.5-11.6,17.3-20.5,23.3c-2.8,1.9-3.3,3.9-1.7,7.2c4.3,8.3,14.8,16.5,27,14c-1.7-3.6-3.4-7.2-5.1-10.9c0.5-0.2,1-0.5,1.5-0.7
	c10.5,15.2,24.2,20.2,36.5,13c-1-0.7-2-1.4-3.9-2.6c25.9,2.8,39.2-7.9,36.6-27.1c-7.5,3.9-15.3,7.9-23.1,12
	c-0.6-0.7-1.2-1.5-1.9-2.2c16.7-5,27.7-13.9,22.6-33.7c7.1,5.4,3.7,11.4,4,16.9c0.1,2.1,1.5,4.2,2.3,6.3c2.1-1.5,5.4-2.5,6.3-4.5
	c6.8-15.2,3.5-29.7-4.9-43.2c-2.2-3.5-6.7-6.9-11.1-2.9c0.3-5.9,1.9-12.2,0.7-18c-1.2-6.3-4.6-12.3-11.2-15.4
	c-11.3-5.2-24.9-3.6-32,4c6.8,4.5,13.5,9.2,16.6,17.2c-19.1-20.2-28.3-17-39.9-11.6c5-7.9,14.1-5.9,21.5-7.4
	c-2.1-7.5-7.6-9.6-13.7-8.3c-12.6,2.6-24.1,7.4-30,20.2c-0.6,1.3-2.5,2.5-3.9,2.7c-10.9,1.7-13.6,9.4-12.9,18.8
	c0.1,0.9,2.4,2.2,3.8,2.3c4.8,0.5,10-0.3,14.4,1.1c10.6,3.3,20.6,6.6,30.6-1.8c3-2.5,7.1-0.4,8.5,3.7c1.1,3.3,2,6.9,2.1,10.4
	c0.1,1.8-1.4,4.6-2.9,5.2c-1.4,0.6-4-0.6-5.7-1.6C571.3,341.7,567.5,339.1,563.5,336.7z"/>
<path fill-rule="evenodd" clip-rule="evenodd" fill="#FFFFFF" d="M896.8,303.4c-3.5-10.7-22.3-19.5-32.4-14.3c3,2.5,6,5,9,7.6
	c-0.5,0.7-0.9,1.5-1.4,2.2c-7.4-9.8-17.8-10.2-28.6-9c0.1-0.6,0.1-1.2,0.2-1.8c3.8-0.3,7.6-0.6,12.2-0.9c-6.6-7-14.3-10-22.5-9
	c-10.2,1.2-18.3,7.5-25.4,14.7c-3.4,3.4-4.3,7.3-0.4,11.1c-3,2.8-6.8,5-8.3,8.1c-3.9,8.4-7.2,17.2-9.8,26.1
	c-2,6.9,0.5,10.8,7.4,14.9c1.9-8.1,1.9-16.7,7.9-23.4c-5.4,17.4-2.2,32.4,12.3,44.3c-9.5-2.8-12.5-11.6-18.4-18.5
	c-4.4,13.1,1.3,23.2,7.9,32.5c5.7,7.9,12.1,15.6,22.7,17.4c-1.8-2-4.1-3.3-6.1-5.1c-1.8-1.6-3.2-3.7-4.1-4.7
	c7.4,3.8,14.7,9,22.9,11.4c11.9,3.4,22.3-9.6,28.4-21.7c-2.4,0-4.6,0-6.8,0c12.7-5.5,25.8-10.3,26.3-26.1
	c-6.8-6.6-14.2-12.1-19.3-19.3c-5.6-7.8-3.8-16.9,0.6-25.9c-5.4,2.3-10.1,5.3-14.7,8.3c-1.5,1-3.1,1.8-4.7,2.7c-1-1.7-2.4-3.2-2.8-5
	c-1.2-5.5,2.2-9.2,6.1-12.3c3.8-3,7.8-2.3,11.7,0.4c3.7,2.6,7.6,2.2,11.7,0.7C884.6,306.6,890.8,305.1,896.8,303.4z"/>
<path fill-rule="evenodd" clip-rule="evenodd" fill="#FFFFFF" d="M706.4,321.7c0.8,4.9,1.7,7.9,1.6,10.9c-0.4,12.5-7.4,21.5-16,29.7
	c-1.6,1.6-3.1,4.9-2.6,6.9c2.1,8.8,6.9,16.2,16.3,18.1c4.9,1,10.4-0.6,15.6-0.9c0.9-0.1,1.8,0.1,4.3,0.3c-2.1,1.6-3,2.3-3.9,3
	c16.4,7.8,34.4,0.9,36.4-13.9c-11.9,6.3-18,7.3-22.4,4.8c5.5-1.7,13-2.3,17.8-6.1c4.7-3.8,6.8-11,10-16.7c0.3,0.1,0.6,0.1,0.9,0.2
	c-1.1,4.5-2.2,9-3.7,15c4-3.4,7.6-5.7,10.3-8.8c7.6-8.7,10.6-19,9.9-30.6c-0.4-7.2-2.6-9.6-9.5-8.9c5.7-15.9,5.3-15.4-0.3-26.7
	c-6-12-17.6-15-28.6-7.7c6,6.2,17.5,5.9,20.1,17.8c-11.2-13.3-24.4-14.6-39.1-12c5.4-3,11.5-3.1,17.9-4.8c-3.6-3.3-7.5-7.7-11.8-8.3
	c-14.7-2.1-27.8,1.2-36.1,15.1c-2.5-2.8-8.9-4.3-11.7-3.1c-5.2,2.3-9.2,10.8-8.8,17c8.5,1.6,17,2,24.5,5.1
	c6.6,2.7,10.7,0.6,14.5-3.4c3.7-3.9,7.7-4.1,11.8-1.8c4.8,2.7,3.9,7.7,2.8,12c-1.2,4.5-4.1,5.6-8.5,3
	C714.7,324.8,710.8,323.6,706.4,321.7z"/>
<path fill-rule="evenodd" clip-rule="evenodd" fill="#FFFFFF" d="M384.6,375.4c11.8,1,20.4-11.2,21-19.7c0.8-11.2-8.1-20.6-18-20.6
	c-8.8,0-19.2,12.7-19.6,23.2C367.6,367.9,374,376.8,384.6,375.4z"/>
<path fill-rule="evenodd" clip-rule="evenodd" fill="#FFFFFF" d="M528,352.3c0,9.3,7.2,17.1,15.6,17c9.6-0.2,19.6-10.1,19.7-19.5
	c0.1-7.3-9.5-17.2-16.6-17.1C537.4,332.8,528,342.6,528,352.3z"/>
<path fill-rule="evenodd" clip-rule="evenodd" fill="#FFFFFF" d="M705.1,332.5c-0.3-5.3-2.9-9.8-7.9-13c-4.8-3-9.4-1.4-13.5,1.3
	c-5.9,3.9-10.5,20.3-4.7,27.6c2.8,3.6,6.5,5.9,12.5,4.2C701.2,349.8,704.5,341.5,705.1,332.5z"/>
<path fill-rule="evenodd" clip-rule="evenodd" fill="#FFFFFF" d="M365.8,367.2c-4.9-14,3-23.1,11.9-31.5c-7.5-7.5-18.9-4.3-26.6,0
	c-5.9,3.3-8.7,14.7-6.7,19.1C348.6,364.1,355.8,370.6,365.8,367.2z"/>
<path fill-rule="evenodd" clip-rule="evenodd" fill="#FFFFFF" d="M870.1,328.2c1.3,3.6,1.8,7.2,3.6,9.8c6.8,9.8,18.3,4.7,23.7-4.2
	c3.8-6.4,1.6-16.6-4.8-20.3c-9-5.1-12.5-4.2-18,3.2C872.2,319.8,871.6,324.2,870.1,328.2z"/>
<path fill-rule="evenodd" clip-rule="evenodd" fill="#FFFFFF" d="M894.6,311.5c9.7,7.8,8,17.8,4.5,27.7c9.5,3.3,15,1.5,19.6-6.3
	c4.2-7.1,3.9-14.8-2.6-20.6C910,306.8,903.4,305.6,894.6,311.5z"/>
<path fill-rule="evenodd" clip-rule="evenodd" fill="#FFFFFF" d="M535.6,333.9c-10.2-8.2-27.4-2-29.5,10.2
	c-2.4,13.8,7.6,21.2,16.6,20.1c1.4-0.2,3.7-3.1,3.5-4.3C523.3,348.2,525.6,340.9,535.6,333.9z"/>
<path fill-rule="evenodd" clip-rule="evenodd" fill="#FFFFFF" d="M675.9,350.1c-5.4-11.1-2-20.9,3.8-30.1
	c-7.4-3.4-12.1-2.2-17.2,3.2c-5.6,6-4.5,19.6-1.9,24C663.2,351.6,668.8,352.6,675.9,350.1z"/>
<circle fill-rule="evenodd" clip-rule="evenodd" cx="110.6" cy="330.3" r="3.7"/>
<circle fill-rule="evenodd" clip-rule="evenodd" cx="124.6" cy="342.6" r="3.7"/>
<circle fill-rule="evenodd" clip-rule="evenodd" cx="350.4" cy="349.4" r="3.7"/>
<circle fill-rule="evenodd" clip-rule="evenodd" cx="377" cy="353" r="3.7"/>
<circle fill-rule="evenodd" clip-rule="evenodd" cx="511.3" cy="349.4" r="3.7"/>
<circle fill-rule="evenodd" clip-rule="evenodd" cx="535.7" cy="349.4" r="3.7"/>
<circle fill-rule="evenodd" clip-rule="evenodd" cx="665.2" cy="332.6" r="3.7"/>
<circle fill-rule="evenodd" clip-rule="evenodd" cx="684.6" cy="332.6" r="3.7"/>
<circle fill-rule="evenodd" clip-rule="evenodd" cx="881.3" cy="317.9" r="3.7"/>
<circle fill-rule="evenodd" clip-rule="evenodd" cx="903" cy="314.2" r="3.7"/>
</svg>
