<?xml version="1.0" encoding="utf-8"?>
<!-- Generator: Adobe Illustrator 16.0.0, SVG Export Plug-In . SVG Version: 6.00 Build 0)  -->
<!DOCTYPE svg PUBLIC "-//W3C//DTD SVG 1.1//EN" "http://www.w3.org/Graphics/SVG/1.1/DTD/svg11.dtd">
<svg artist="zl2017" version="1.1" id="zlIcon-sheep-pushkin" xmlns="http://www.w3.org/2000/svg" xmlns:xlink="http://www.w3.org/1999/xlink" x="0px" y="0px"
	 width="1000px" height="1234.8px" viewBox="0 0 1000 1234.8" enable-background="new 0 0 1000 1234.8" xml:space="preserve">
<path fill-rule="evenodd" clip-rule="evenodd" d="M797.4,1212.5c-1.8,1.7-3.3,4.4-5.5,5.1c-17.7,5.7-35.3,12.2-53.5,16.2
	c-15.8,3.5-30-2.9-40.7-14.9c-5.6-6.3-10.7-13.2-14.7-20.6c-4.7-8.5-10.4-8.6-18.2-5.2c-15.4,6.8-30.7,14.2-46.6,19.7
	c-46.1,16.2-87,4.8-122.6-26.7c-15.1-13.4-28.2-29-43.3-44.7c-5.4,2.6-12.4,5.8-19.3,9.3c-37.8,18.9-77.7,5.4-100.1-27.4
	c-14.3-21-23.7-42.9-26.8-67.9c-0.8-6.5-3.1-12.8-5.1-20.4c-3.7,1.9-7.4,3.3-10.7,5.4c-26,16.5-53.8,28.2-83.9,35.9
	c-38.9,9.8-76.4,7.3-113.9-4.8c-53.2-17.2-90.4-75.8-91.9-122.9c-0.5-14.7,5.3-29.5,7.8-44.4c4.1-24.4,15.3-45.3,29.2-65.4
	c26.9-38.6,51.1-79.2,80.2-116.1c32.5-41.2,64.2-83.4,106.2-116.5c40.2-31.7,77.7-66.8,118.3-98c20.8-15.9,45.5-26.7,68.6-39.5
	c7.1-4,14.6-7.3,24.7-12.3c-4-2.5-5.5-4.3-7-4.2c-24.6,1.1-49,2.4-73.1,8.5c-17.9,4.5-36.6,6.1-55.3,9c-2.2-5.5-4.1-9.2-5.2-13.1
	c-4.4-17,2.8-26.7,19.9-26.9c12.8-0.1,25.5,0.5,38.3-0.1c16.8-0.8,33.6-2.4,50.4-3.8c9.1-0.8,12-6.3,12.1-14.9
	c0.4-19.4,1.5-38.7,2.3-58.1c1.3-32.6,2.2-65.3,3.8-97.9c0.9-19-3.5-37-7.9-55.2c-5.1-21-8.7-42.4-12.9-63.6
	c-2.9-14.8-5.2-29.7-8.6-44.3c-4.3-18.4,2-35.7,19-43.8c16.8-8,34.2-15.4,52.1-20.4c36.5-10.1,73.5-18.2,111.8-18.6
	c17.1-1.1,13.4-0.9,31.8-4.4c14.4-4.8,29.3-4.7,43.4-4.3c30.5,1,61,4.9,91.4,8.7c21.4,2.7,42.7,7.2,63.9,11.3
	c36.7,7,72.7,16.4,106.7,32.3c2.6,1.2,4.9,3.1,6.9,4.4c2.2,25.3-5,47.8-12,70.7c-4.3,14-6.6,29-10,43.2
	c-8.2,34.5-4.2,69.6-10.7,104.1c-6.3,33.6-7.9,68.1-11.9,102.2c-1.1,9.6-3.6,19-4.5,28.5c-1,10.9-1.5,22,7.9,31.9
	c37.9,3.2,76.9-8.9,116.5-4.9c1.2,3.1,2.2,5.3,2.9,7.5c5,17.4-0.5,24.9-19,24.5c-22.4-0.4-44.8-2.1-67.2-2.2
	c-17.4-0.1-34.8,0.8-52.1,2.4c-13.7,1.3-14,3.3-12.7,17.1c0.6,6.2-1.4,12.8-2.9,19.1c-1.6,6.4-4,12.5-6.2,19.3
	c3.6,2.7,6.7,5.6,10.2,7.8c8.7,5.4,13.8,12.8,16.6,22.8c4.6,16.7,13.8,29,29,39.4c20.8,14.3,37.1,34.5,50.4,56.6
	c16.5,27.6,24.6,56.9,25.3,89.2c0.9,38-19.3,62.3-48,81.8c-10.4,7.1-22.5,11.7-33.9,17.1c-17.6,8.3-17.7,8.2-15.9,27.2
	c0.3,3,0.2,6.1,0.8,9c5.6,26.6-4.7,46.6-28.7,59.3c-22.4,11.8-46.6,16.5-71.1,18.5c-10.2,0.8-21.2-3.6-31.1-7.6
	c-4.2-1.7-6.3-8.5-10.5-14.6c18.3-2.8,27.5,16.8,44.7,9.4c13.6-5.9,29-7.2,43.3-11.8c14.8-4.8,22.8-17.6,30.1-30.2
	c7.9-13.6,7.7-28.8,6-44.8c-2.6-0.7-5-2.1-6.9-1.6c-16.1,4.4-31.7,2.7-48.1,0.1c-31.7-4.9-52.7-22-65.2-50.6
	c-3.9-9.1-2.2-17.7,4.3-25.4c10.2-12.1,22.2-17.5,38.6-20c29.5-4.5,48.6,11.1,66.2,28.9c8.2,8.3,10.5,22.5,15.5,34
	c2.1,4.8,4.1,9.6,6.3,14.7c13-5.5,24.8-9.9,36-15.6c25.4-13,40.4-34.3,45.9-61.9c3-15.3,6.7-31.1,5.5-46.3
	c-2.1-25.3-15.4-46.6-32.5-65.1c-8.6-9.4-17.8-18.2-27.1-27c-13.7-12.9-22.4-12.3-34.2,1.9c-20.8,25-46.1,30.8-72.6,16.7
	c-12.5-6.6-14.3-13-6.5-24.5c15.9-23.7,40.4-29.9,68.7-33.4c0-5,1.5-11.9-0.3-17.8c-5.2-17.2-20.4-21.2-35.4-10.5
	c-8.3,5.9-17,11.3-25.5,16.9c-1.5,1-3.1,2-4.8,2.6c-11.7,4.5-22.6,3.5-32.1-5.1c-3.9-3.6-9-7.3-6.2-13.8
	c4.3-9.9,15.2-22.9,27.8-23.6s25.1-3.1,37.7-3.4c9.5-0.2,14.1-4.6,17.6-12.6c6.3-14.4,8.2-29,3.7-44.2
	c-10.7-35.3-41.6-66.9-82.1-67.8c-37.9-0.8-73.9,9-103.4,35.2c-5.1,4.6-8.6,11-12.6,16.1c2.3,3.3,3,5.5,4.4,6.1
	c23.3,10.7,35.5,31.4,43.7,53.4c7.6,20.5,6.7,43.2,1.3,64.5c-5.4,21.2-16.1,40.4-29.4,57.9c-5.1,6.7-10.4,14.3-17.5,18.1
	c-14.7,8-30.2,15.1-46.1,19.9c-16.1,4.9-34.1,2.7-49.1-2.7c-12.7-4.6-24.1-16.1-33-27c-16.4-20-8.9-41.2,2.1-60.9
	c6.7-12,16.2-22.5,22.9-34.5c4.9-8.8,7.1-19,10.8-28.4c1.3-3.3,3.6-6.2,7.2-12.5c6.8,22.6,3.6,39.3-8.9,54.2
	c-11,13.2-18.8,27.6-23.5,44.3c-5.8,20.4,10.6,51.7,38.9,55.2c28.5,3.5,53.2-6,71.6-27.2c13.7-15.8,25.2-33.7,35.8-51.8
	c18.8-32,9.8-67.6-12.9-91.9c-2.5-2.6-5.2-5.4-8.4-6.9c-21.3-9.7-42-21.5-64.3-27.6c-17.3-4.7-35.6-8.8-55.1-3.7
	c-16,4.2-33.8,2.1-49.5,9.4c-18.6,8.8-37.5,17-55.1,27.4c-21.2,12.6-41.7,26.6-61.4,41.5c-23,17.3-46.5,34.4-65.5,59.4
	c6.4,2.4,12.3,4.9,18.3,6.6c15.5,4.5,29.4,12.6,38.7,25.2c11,14.9,14.4,33.7,11.1,51.7c-6.4,34.5-16.9,67.7-41.1,95
	c-12.7,14.3-26.8,27.8-44.7,32.9c-20,5.7-40.7,6.9-61.1-5.2c-18.5-11.1-34.8-23-47.1-41.1c-4.8-7.1-13.2-11.9-20.3-17.9
	c-20.4,13.1-36.6,28.8-51.1,46.6c-20.7,25.4-37.8,53.1-52.9,81.9c-11.5,21.9-23.5,45.2-22.9,69.8c0.8,30.5,2.2,60.8,23.6,88.6
	c24.3,31.5,54.5,43.1,91,46.8c3,0.3,6,0.7,9,1.3c34.4,7.2,66.8-0.8,97.9-14.2c22.7-9.8,44.3-21.9,66.5-32.9c2-1,4.4-1.2,6.4-1.7
	c0,9.2,0.6,17.6-0.1,25.9c-2.1,23.4,6.9,43.7,17.6,63.2c24.2,44,77.5,57.6,116.8,22.1c0.3-4.8-0.7-10.9,1.3-15.5
	c2.2-5,6.6-10.3,11.4-12.4c7.5-3.4,12.4,2.1,10.7,10.6c-0.1,0.6-0.2,1.2-0.5,1.7c-12.2,21,0.6,35,13.5,49.2
	c15.7,17.2,33,32.2,55,40.6c27.9,10.7,55.8,6.7,83.5-1.3c8.7-2.5,17.2-5.5,25.6-8.8c12.6-4.9,23.2-12,29.3-24.9
	c3.6-7.5,4.2-7.2,16.5-7c0.3,2.8,1.9,6.5,0.7,8.4c-8.4,13.1-3,24,4.4,34.8c8.8,12.9,21.8,18.9,36.7,19.5c9.4,0.4,19-1.8,28.4-3.4
	c11.2-1.9,22.3-4.5,33.5-6.7L797.4,1212.5z M349.9,657.9c0-4.2,0.3-8.5-0.1-12.7c-0.2-2.3-1.8-4.4-2.3-6.7
	c-7.5-30.9-57.3-46.4-86.7-36c-23.8,8.4-42.4,25.2-57.7,45.1c-7.4,9.7-11.5,21-11.1,33.8c0.2,7.8-1.7,15.7-1.2,23.4
	c0.9,12.9,0.4,26.9,5.3,38.3c8.3,19.2,24.1,32.5,44,40.5c11.4,4.6,22,4.4,33-1.3C323.5,756.1,343.2,711,349.9,657.9z M848.7,833.2
	c0.5-30-23.1-57.8-50.2-65.1c-16-4.3-28.2-2.3-39.7,8.6c-10.5,9.9-11.6,16.6-3.5,28.5C776.2,835.9,803,843.1,848.7,833.2z
	 M857.4,589.2c-28.2-0.5-50.6,7.4-67.2,29C810,642.9,849.6,619.6,857.4,589.2z M800.4,535.8c-17.3,0.1-17.3,0.1-26.1,8.3
	C790.8,545.6,790.8,545.6,800.4,535.8z"/>
<path fill-rule="evenodd" clip-rule="evenodd" d="M602.1,734.4c22.1,15.9,22.8,21,7.6,38.4c-2,2.3-3.6,4.9-5.8,6.9
	c-24.1,23.2-41.9,51.2-60.3,78.8c-3.3,5-10.1,7.5-14.9,11.6c-11.4,9.7-22.6,19.7-34,29.4c-4.5,3.8-9,10-13.8,10.4
	c-13.3,1.1-16.2,10.9-20.4,20.1c-5.9,13.1-11.1,26.7-17.9,39.4c-4.3,8.1-9,18.9-22,9.5c-1.3-0.9-6.3,1.9-8.7,4
	c-4.3,3.7-7.9,8.2-11.7,12.3c-7.2-9.1-13-16.5-18.9-23.9c-11.6,8.3-21.7,15.5-32.7,23.4c-3.1-9.7-5.7-17.6-8.7-27.1
	c-10.8,7-19.8,12.9-30,19.5c-4.1-5.1-8.1-9.9-12.6-15.5c-13.8,11.1-23.5,26.5-39.7,33.4c-12.9-10.1-0.6-22.4-5-35
	c-6.3,4-11.7,8.8-18,11c-6.2,2.3-12,10.2-19.7,3.8c-7.3-6.1-5.6-14.5-3.1-21.8c2.9-8.3,4.6-16.8,11.7-23.9c6-6,8.4-15.7,12.5-23.7
	c2.3-4.5,4.8-8.9,9.1-17c5.5,11.1,9,18.2,12.4,25c11.8-3.3,15.4-26.7,33.7-9.9c10.1-13.7,20.2-27.3,31.8-43
	c4.1,8.1,6.7,13.1,9.9,19.3c4.9-1.9,9.4-3.2,13.5-5.3c4.5-2.3,8.2-4.3,13.4-0.9c2,1.3,6.3-1,9.5-1.8c21.2-5.5,37.9-17.3,49.6-36
	c0.8-1.3,3.1-1.8,5.8-3.3c3.6,6.7,7.1,13.4,11.5,21.6c16.9-9.9,34.8-18.1,45.5-37.7c3.8,2.6,6.9,4.8,11.4,7.9
	c3.6-4.2,7.3-8.7,11.2-13c5.7-6.3,8.8-16.1,21.1-13.4c2.9,0.6,7.6-5.1,10.8-8.5c5.8-6.1,11.1-12.7,16.7-19.1
	c1.2-1.3,2.5-3.9,3.5-3.8c17.7,2.1,19.5-15,28.4-23.4C590.6,747.3,596,740.9,602.1,734.4z"/>
<path fill-rule="evenodd" clip-rule="evenodd" d="M797.8,1212.9c6.3-6.7,14.3-9,24.7-11.2c-7.2,10.3-14.8,14-25,10.8
	C797.4,1212.5,797.8,1212.9,797.8,1212.9z"/>
<path fill-rule="evenodd" clip-rule="evenodd" d="M262.5,687.1c-1,3.2-2.3,10.5-5.7,16.6c-6.3,11.3-18.5,15.8-27.3,11.1
	c-9.5-5-16.9-21.6-13.3-31.3c1.9-5,4.7-9.9,7.9-14.2c5.9-7.9,14.2-11.4,24-9.4C255.2,661.3,262.3,673.7,262.5,687.1z"/>
</svg>
