<?xml version="1.0" encoding="utf-8"?>
<!-- Generator: Adobe Illustrator 16.0.0, SVG Export Plug-In . SVG Version: 6.00 Build 0)  -->
<!DOCTYPE svg PUBLIC "-//W3C//DTD SVG 1.1//EN" "http://www.w3.org/Graphics/SVG/1.1/DTD/svg11.dtd">
<svg version="1.1" id="Layer_1" xmlns="http://www.w3.org/2000/svg" xmlns:xlink="http://www.w3.org/1999/xlink" x="0px" y="0px"
	 width="1000px" height="752px" viewBox="0 0 1000 752" enable-background="new 0 0 1000 752" xml:space="preserve">
<g>
	<path id="XMLID_9_" fill-rule="evenodd" clip-rule="evenodd" fill="#939598" d="M615.1,45.3c-0.9,0.7-2.2,1.2-2.5,2.1
		c-4.1,10.8-8.2,21.6-12,32.5c-2.1,6.2-2.1,12.5,0.1,19.1c7.4,5.1,14.6,10.9,23.1,14.6c0.5,0.2,1.1-0.1,1.7-0.2
		c0.4-1,1.2-2.1,1.2-3.1c0.8-20.6,7.2-39.8,15.3-58.4c2.8-6.5,4.5-13,5.4-19.9c0.3-2.4-1.7-4.3-4.1-4.4c-7.2-0.3-13.4,3.4-20.2,4.6
		c-3.8,0.7-5.9,3.5-7,7c-0.7,2.2-1.1,4.5-1.7,6.7L615.1,45.3z"/>
	<path id="XMLID_8_" fill-rule="evenodd" clip-rule="evenodd" fill="#FFFFFF" d="M698.8,391.2c-0.5,4.1-0.7,7.5-1.4,10.9
		c-0.1,0.7-1.9,1.4-2.8,1.4c-0.9,0-2.4-1.1-2.4-1.7c0-4.6,0.2-9.2,0.5-13.8c0.2-2.9,1.3-5.7,1-8.5c-1.3-13.3-3.9-26.2-10.8-38.1
		c-6.4-11.2-15.3-20.3-24.3-29.3c-2-2-4.8-3.2-7.3-4.6c-3.8-2.1-6.8-1.3-7.9,2.8c-1.2,4.6-3.3,8.7-5.8,12.5
		c-1.9,2.8-4.2,5.6-6.9,7.6c-10.3,7.7-21.3,14-34.3,15.8c-10.3,1.4-20.6,3.1-30.9,4.5c-3.4,0.5-6.9,0.3-10.4,0.3
		c-2.3,0-4.6,0-6.9-0.2c-5.2-0.4-8.9,2.1-11.9,5.9c-1.8,2.2-3.2,4.8-4.9,7.1c-4.5,6.1-10.4,8.9-18.1,7.4c-4.5-0.9-9.1-1.8-13.7-2.2
		c-12.3-0.9-23.6-5.4-35.3-8.6c-2.2-0.6-4.2-2-6-3.4c-5.6-4-8.9-9.1-7.5-16.3c1.3-6.7-2-11-7-14.6c-0.5-0.3-1-0.5-1.5-0.9
		c-14.2-9-27.8-18.7-38.4-32.1c-0.7-0.9-1.8-1.3-3.3-2.4c-11.7,0.9-23.6-0.4-35-5.4c-3.6-1.6-7.9-1.6-11.9-2.1
		c-4.6-0.5-9.2-0.5-13.8-1.1c-5.8-0.7-11.5,0-17.2,1.2c-13.6,2.9-26.7,7.7-40.5,9.3c-1.7,0.2-3.3,1.1-4.9,1.8
		c-7.7,3.9-15.7,7.5-23.1,11.9c-6.9,4.2-12.9,9.6-18.2,15.9c-18.9,22.4-23.5,48.3-20.1,76.5c0.1,1.1,0.4,2.3,0.8,3.4
		c3.8,10.3,7.2,20.8,14.2,29.5c0.7,0.8,1.1,2.1,1,3.1c-0.1,0.9-0.9,2.3-1.7,2.6c-2.4,0.7-4.6-0.1-6.3-1.8c-5-5.1-7.8-11.4-10.6-17.8
		c-1.9-4.3-4.6-6.1-9.8-3.4c-4.6,2.3-9.2,4.9-13.5,7.9c-3.3,2.3-6.6,4.9-9,8.1C170,445.5,162,462,160.9,481.1
		c-0.5,8.1-0.6,16.2-0.9,24.3c0,1.7,0,3.5,0.4,5.2c1.4,5.6,2.9,11.2,4.4,16.8c5.4,6.2,5.9,15.1,12,20.9c0.8,0.8,1.9,1.2,3.5,2.1
		c6.3-0.3,13.3-0.3,20-2c10.3-2.6,20.6-2.3,31-1.2c13.8,1.5,27.6,3.3,41.5,3.5c13.4,0.2,26.4,2,39.5,4.6c13.6,2.7,27.3,5.2,40.9,7.7
		c10.3,1.9,20.2,4.6,29.9,8.2c17.9,6.6,36.2,11.8,55.3,14.2c13.1,1.6,26,5.4,39.3,6.6c7.2,2.9,14.8,2.6,22.3,3
		c4.6,0.2,9.3,0.1,13.9,0.6c8.7,1,17.3,0.1,25.9-1.4c10.3-1.7,20.5-3.7,30.8-5.2c6.9-1,13.5-2.9,20.2-4.8
		c20.7-5.9,40.5-13.7,58.6-25.7c0.5-0.3,1-0.5,1.5-0.8c14.1-7.5,25-18.6,35.2-30.5c6.6-12.2,17.5-21.6,22.5-34.8
		c0.6-1.6,1.8-3,3-4.2c3.5-3.3,5.1-7.8,6.9-12c3.4-8,7.6-15.4,12.4-22.7c11.6-17.2,25.7-31.2,45.1-39.2c1.6-0.7,3-1.6,4.4-2.4
		c-0.1-1.3,0.2-2.6-0.3-3.6c-1-2.1-2-4.3-3.6-5.9c-6.5-6.6-13.2-13-20-19.2c-1.7-1.5-3.9-2.6-6-3.4c-3.8-1.5-7.6-2.8-11.5-4
		c-12-3.6-22.9-1.3-32.3,7C703.8,385.5,701.2,388.6,698.8,391.2z"/>
	<path id="XMLID_7_" fill-rule="evenodd" clip-rule="evenodd" fill="#F7941E" d="M902.4,524.1c-3.8,4.3-6.4,7.3-9.2,10.2
		c-2.8,2.9-6,5.5-8.6,8.6c-5.4,6.3-12.3,10.4-19.6,14c-8.9,4.4-18.3,7.2-27.9,9.3c-4.5,1-9.1,1.8-13.7,0.4c-0.4-0.1-1-0.6-1-0.9
		c0-0.5,0.2-1.4,0.5-1.6c2.6-1.2,5.1-2.8,7.8-3.2c9.3-1.6,17.6-5.6,26-9.5c14.4-6.6,23.1-18.8,29.7-32.6c1.5-3.1,2.5-6.6,2.7-10
		c0.5-8.1,0.7-16.2,0.6-24.3c0-3.4-0.8-6.9-1.8-10.2c-1.6-4.9-3.4-9.9-5.9-14.5c-6.7-12.4-15-23.5-28-29.9
		c-7.8-3.8-15.7-7.4-24-10.1c-13.8-4.5-28-7.1-42.6-2.9c-9,2.6-18.1,5.5-24.9,11.7c-13,11.6-24.2,24.8-32.2,40.5
		c-3.7,7.2-6.4,14.8-10,22c-6.2,12.4-13.5,24.2-20.5,36.2c-2,3.5-4.7,6.6-7.2,9.7c-3.3,4-6.8,7.8-10,11.9c-7.8,10.2-17,19.1-26.9,27
		c-8.5,6.8-18.5,11.7-27.9,17.4c-7,4.2-14.6,7-22.3,9.7c-4.5,1.5-9,2.2-13.6,2.2c-16.8-0.1-33.6-0.4-50.4-0.3
		c-12.8,0.1-25.5-0.2-38.1-2.6c-5.7-1.1-11.5-1.1-17.3-1.5c-9.2-0.7-18.5-1.5-27.3-4.1c-12.2-3.6-24.7-6.4-37.2-8.5
		c-11.5-1.9-22.6-4.9-33.5-8.7c-14.3-4.9-28.8-8.8-43.5-11.9c-10.2-2.1-20.4-4.2-30.6-6.1c-13.6-2.6-27.2-5.7-41.2-5.2
		c-5.2,0.2-10.4-0.7-15.6-1.1c-10.4-0.8-20.7-1.7-31.1-2.4c-18.3-1.2-36.1,2.2-52.2,10.5c-28.6,14.9-50.6,36.4-61.3,67.8
		c-0.9,2.7-1.3,5.6-1.6,8.4c-1.1,11,0.1,22,0.7,33c0.4,6.5,2,12.5,4.5,18.4c3.6,8.5,7.2,17,10.9,25.5c0.7,1.6,1.3,3.2,2.3,4.7
		c1.9,3,4.4,5.4,8.4,5.3c3.5-0.1,7,0.1,10.4-0.6c11.9-2.4,23.9-4.4,35.6-7.7c17.2-4.9,34.3-10.4,51.2-16.4
		c10.3-3.6,20.1-9,30.4-12.7c21.9-7.9,42.3-18.6,61.4-32c1.4-1,2.9-1.8,4.4-2.7c3-1.6,7-1.1,9.5,1.7c5.4,6,11.2,11.6,15.9,18.3
		c7,10,15.4,18.8,26.3,24.7c4.6,2.5,9.2,4.9,13.6,7.7c11.6,7.2,24.5,10.7,37.7,12.2c20.1,2.2,40.5,2.8,60.6,0.7
		c14.9-1.6,29.9-3.8,44.4-7.6c18.4-4.8,36.6-10.4,54.6-17c12.7-4.7,24-11.4,35-18.8c4.3-2.9,8.1-6.5,12.1-9.9
		c3.6-3,7.7-5.1,12.3-6.1c1.9-0.4,5.3,0.6,6.1,2.3c5,10.1,13.7,17.1,21.1,25.2c9.1,10,19.8,17.8,32.2,23.1c9,3.9,18,7.4,27.9,9.1
		c17.5,3.1,14.6,3.1,20.3-12.3c1-2.7,2.5-5.2,3.5-7.9c2.8-8.2,5.4-16.5,8-24.7c1.7-19.8,8-38.5,13.7-57.3c1.3-4.4,3.3-8.8,6-12.4
		c8.3-10.7,18.9-18.7,30.6-25.3c7.8-4.4,16.1-5.2,24.9-1.1c6.8,3.2,13.4,6.6,19.9,10.4c5.1,3,10.5,4.4,16.6,2.1
		c5.4-2,11.2-2.8,16.7-4.6c24.2-7.8,48.5-15.3,73.2-21.5c-0.2-2.9-1.6-4.4-4.1-5c-13.5-3.4-26.5-8.2-38.8-14.8
		c-5.1-2.7-10-5.6-14.3-9.7C912.7,532,908,528.6,902.4,524.1z"/>
	<path id="XMLID_6_" fill-rule="evenodd" clip-rule="evenodd" fill="#A7A9AC" d="M328.5,199.1c-1.8,10.8,0.6,21.1,2.1,31.3
		c0.4,2.8,1.6,5.6,3,8.1c8.1,14.3,18.4,26.6,32.3,35.7c8,5.2,16.7,7.9,26.2,7.6c9.8-0.3,19.7-0.5,29.5-0.8c1.7,0,3.5-0.2,5.1-0.7
		c14.4-4.3,28.9-8.5,41.9-16.5c3.4-2.1,6.9-4.2,10.5-6.1c3.1-1.7,6.3-2.2,10-1.2c10.2,2.7,19.6,7,28.3,13
		c11.7,8.1,24.7,12.6,38.7,14.5c15.3,2.1,30.1,1.4,43-8.6c1.4-1.1,3-1.7,4.5-2.6c18.7-11.7,29.9-28.9,35.1-49.8
		c2.5-10,3.1-20.6,4.4-30.9c1.9-14.7-0.9-28.8-5.3-42.7c-3-9.7-8.3-18-16-24.3c-10.3-8.4-21.5-15.6-34.3-19.9
		c-7.2-2.4-14.6-3.6-22.2-2.8c-5.7,0.6-11.5,1.4-17.3,1.6c-5.4,0.2-10.2,1.9-14.8,4.3c-4.6,2.4-9,5.2-13.6,7.6
		c-4.6,2.4-9.1,5.1-14,6.9c-14.7,5.6-29.2,6.5-43.3-2.1c-2-1.2-4-2.3-6.1-3.3c-14.2-6.8-28.9-11.7-44.7-13
		c-5.9-0.5-11.4,0.3-17.1,1.8c-12.1,3.2-22.2,9.4-30.6,18.6c-2.3,2.6-4.5,5.3-7.1,7.7c-9.4,9-15.1,20-20.4,31.7
		C330.9,175.7,328.3,187.2,328.5,199.1z"/>
	<path id="XMLID_5_" fill-rule="evenodd" clip-rule="evenodd" fill="#939598" d="M546.5,343.5c6.1,0,10.2,0.5,14.2-0.1
		c12.6-1.8,25.1-4,37.6-6c11.2-1.9,20.5-7.8,28.9-14.9c3.4-2.8,6.7-7,7.8-11.1c2.2-7.7,3.9-15.6,4.2-23.8c0.4-9.3-1.7-18.4-2.5-27.5
		c-0.2-2.2,0.3-5.2-2-6.1c-3.4-1.3-4.9,2.1-6.8,4.1c-2.7,3-5.1,6.2-7.9,9.2c-3.5,3.7-4.7,7.8-3,12.7c2.4,7.1,1.1,14-2.6,20
		c-5.3,8.4-12.1,15.4-22.2,18.3c-14.6,4.1-29.2,5.8-44.3,2.1c-10.1-2.4-20.3-4.2-29.7-8.9c-4.6-2.3-9-1.5-12.9,1.8
		c-2.6,2.2-5,4.7-7.3,7.3c-1.8,2-1.4,5.7,0.6,7.9c0.8,0.9,1.5,1.8,2.3,2.5c6.2,5.5,13.7,8.7,21.7,9.9
		C531.3,342.2,539.9,342.8,546.5,343.5z"/>
	<path id="XMLID_4_" fill-rule="evenodd" clip-rule="evenodd" fill="#808285" d="M512.6,362.5c0.4,0.1,2.7,0.3,5,0.6
		c0.6,0.1,1.1,0.2,1.7,0.3c1.9,0.1,4.4-2.4,4.4-4.4c-0.2-6.2-1.7-11-8.9-12.7c-4.4-1-8.5-3.5-12.5-5.8c-3.4-2.1-6.7-4.5-9.4-7.4
		c-5.4-5.7-5.2-10.2-0.6-17c3-4.5,7.1-7.7,11.9-9.7c4.2-1.7,8.7-2.7,13-4.2c0.4-0.1,0.7-1,0.7-1.5c0-0.4-0.5-1-0.9-1.1
		c-12.5-2.8-25.1-1.5-37.6,0c-2.4,0.3-4.2,1.9-5.1,4.2c-1.6,4.3-2.8,8.8-4.7,13c-2.5,5.8-5.4,11.5-8.2,17.2
		c-1.6,3.2-1.9,6.6-1.8,10.1c0.2,3.1,1.9,5.4,4.3,7.2c1.4,1,2.9,2,4.6,2.4C482.5,357.2,496.3,361.5,512.6,362.5z"/>
	<path id="XMLID_3_" fill-rule="evenodd" clip-rule="evenodd" fill="#808285" d="M652.3,10.6c-1-0.9-2.2-2.9-3.3-2.8
		c-9,0.5-18.1,0.9-27.1,2.2c-3.1,0.4-6,3.1-8.8,4.9c-1.6,1-1.8,4.3-0.6,6.2c1.6,2.4,3.3,4.7,6.7,4.4c9.8-0.8,18.6-4.9,27.7-8.1
		c1.5-0.5,2.8-2,3.9-3.2C651.4,13.3,651.7,12.1,652.3,10.6z"/>
</g>
<path id="XMLID_2_" fill-rule="evenodd" clip-rule="evenodd" fill="#FFFFFF" d="M779.2,497.2c0-0.1,0.3,2.8,0.8,5.6
	c2,9.4,10.6,16,20.2,15.6c6.4-0.2,12.6-1.8,18.6-3.8c2.1-0.7,4.2-2,6-3.4c5.2-4,8.5-9.2,10.5-15.5c5.2-16.2,2.3-22.4-11-30.3
	c-12.5-7.4-33.2-5.4-41.3,12.1C780.5,482.9,778.8,488.3,779.2,497.2z"/>
<path id="XMLID_1_" fill-rule="evenodd" clip-rule="evenodd" fill="#FFFFFF" d="M619.9,189.1c-0.8-6.3-1.2-12.6-2.5-18.8
	c-2.7-12.9-10.2-23.2-19.9-31.7c-10.6-9.3-23-13.4-36.9-9.6c-8.3,2.2-16.4,5.2-23.2,11.2c-7.6,6.7-16.9,9.8-27.1,9.6
	c-6.4-0.1-12.8-0.5-19.1,0.2c-7.6,0.9-15.1,0.4-22.4-1.4c-8-2-16-2.3-24.1-2.5c-14.4-0.5-27.4,3.2-38.8,12.2
	c-3.6,2.9-7.8,5.1-11.2,8.2c-5.9,5.4-12.2,10.8-16.9,17.2c-4.7,6.4-7.7,14.1-11.4,21.3c-0.8,1.5-1.1,3.3-1.3,5
	c-1.5,11.3,0.6,21.5,8.1,30.9c4.9,6.2,10.3,10.7,17.6,13.3c4.4,1.5,8.7,3.4,13.4,2.8c11.4-1.5,22.9-2.7,33.7-7.5
	c6.4-2.8,12.4-6.2,17.9-10.4c5.6-4.3,11.8-7.5,18.8-8.5c8-1.2,15.9-2.7,23.7-4.7c7-1.8,13.8-0.4,19.8,3.8c3.3,2.3,6.8,4.5,9.6,7.4
	c8.5,8.6,19,12.4,30.6,14.7c14.6,2.8,27.4-1.2,39.9-7.8c3.6-1.9,6.4-5,8.5-8.5C615.1,221,620.5,205.9,619.9,189.1z"/>
<path id="XMLID_17129_" fill-rule="evenodd" clip-rule="evenodd" d="M999,569.6c-2.5,1.2-4.4,2.4-6.6,3.1c-1.6,0.5-3.4,0.4-5.2,0.4
	c-14-0.1-27.5,2.9-40.9,6.8c-12.8,3.7-25.6,7.4-38.5,10.5c-7.4,1.8-14.6,3.8-21.1,7.7c-4.8,2.9-9.9,3.2-15.1,1.7
	c-6.1-1.8-12.4-3.4-18.1-6c-11.1-5-21.6-2.5-31.8,2.1c-8.6,3.8-15.8,9.9-20.9,17.8c-6.6,10.2-12.3,20.9-14.9,33
	c-3.5,16.5-4.4,33.3-5.2,50c-0.4,6.9,1,13.8,1.5,20.7c0.2,2.2,2.3,4.5,4.5,4.5c5.2,0,10.5,0.8,15.5-0.3c18.7-3.8,37.4-7.9,55.2-15
	c5.9-2.3,11.5-5.5,16.8-8.9c10.2-6.6,20.3-13.4,28.6-22.5c0.5-0.5,2.1-0.3,3,0.1c1.1,0.5,1.2,1.7,0.5,3c-0.3,0.5-0.5,1-0.9,1.4
	c-15.7,15.9-33.7,28-55.3,34.4c-6.6,2-13,4.9-19.6,7c-6.6,2.1-13.5,3.4-20.1,5.5c-8.4,2.7-17.2,2.4-25.8,3.1
	c-8.1,0.7-16.2,0.6-24.3,0.5c-32.6-0.5-61.3-11-84.7-34.2c-6.9-6.9-12.9-14.8-19.2-22.3c-1.1-1.3-2.1-2.8-3.1-4.1
	c-1.5-1.8-4.7-2.4-6.1-0.8c-9.1,10-21.5,15.6-32.3,23.3c-1.8,1.3-4,2.2-6.2,3.1c-20.4,8.3-41.1,15.5-62.6,20.7
	c-11.8,2.8-23.5,5.9-35.3,8.8c-3.4,0.8-6.8,1.2-10.3,1.5c-15.5,1.4-31.1,2.3-46.7,1.1c-1.7-0.1-3.5-0.3-5.2-0.2
	c-29.1,1.2-54.2-10.3-78-25.4c-9.4-6-16.6-14.4-22.3-24c-3.9-6.6-9-12-14.7-15.8c-4-1-6.4,1.1-8.7,2.7
	c-16.5,10.9-34.3,19.3-52.5,26.8c-8,3.3-15.8,7.1-23.6,10.9c-9.4,4.6-19.2,7.8-29.3,10.6c-8.9,2.5-17.7,5.5-26.5,8.3
	c-15.5,4.8-31.4,8.1-47.3,10.8c-10.8,1.8-21.8,2.9-32.5,4.8c-20.9,3.7-41.4,1.6-62-1.9c-4.6-0.8-9.2-1.2-13.8-1.9
	c-11.5-1.7-22.8-3.8-33.1-9.6c-1.5-0.8-2.9-1.9-3.9-3.2c-0.6-0.8-0.8-2.3-0.4-3.2c0.3-0.8,2-1.8,2.6-1.5c8,3.3,15.9,6.8,24.5,8.5
	c2.3,0.4,4.5,1.5,6.7,1.7c13.8,1.7,27.6,3.5,41.4,4.8c5.7,0.5,11.6,0.1,17.4-0.1c3.8-0.1,6.8-2.7,7-6.3c0.7-10.9,2.5-21.9,0.9-32.9
	c-0.7-4.6-0.4-9.3-1.2-13.8c-1.8-11.6,0.6-23,1-34.5c0.1-3.4,1.4-6.8,2.8-10c5.1-11.7,10.2-23.3,15.6-34.8
	c4.2-9.1,11-16.3,17.8-23.4c5.9-6.3,11.9-12.7,20.4-15.7c2.1-0.8,4-2.4,5.9-3.6c3.1-2.1,3.6-4.8,1.5-9c-0.5-1-1.4-1.8-2.1-2.8
	c-13.9-2.7-24.4-3-35.8-0.2c-9.1,2.3-18.3,3.1-27.5,3.1c-9.4,0-18.5,1.2-27.5,3c-11.9,2.4-23.7,5.4-35.4,8.5
	c-3.9,1-7.5,2.9-11.1,4.7c-5.7,2.8-11.2,5.7-16.5,8.4c-3.6-0.7-5.3-3.3-6.9-5.6c-0.9-1.2-1.4-3.8-0.7-4.7c4.2-5.5,7.6-11.7,13.1-16
	c6.8-5.3,13.5-11,20.5-16.1c8.4-6.1,17.7-11,24.8-18.9c1.1-1.2,2.9-1.9,4.3-2.8c1-0.6,2.2-0.9,3.1-1.5
	c25.9-18.8,55.3-31.3,83.1-46.6c5.4-3,8.9-6.8,10.8-12.8c5.1-16.4,14.9-29.9,27.1-41.8c5-4.9,10.1-9.5,14.9-14.6
	c1.5-1.5,2.8-4.1,2.7-6.1c-0.4-13.7,3.5-26.4,8.5-38.8c8.3-20.6,21.6-36.8,42-46.6c8.9-4.3,17.5-9.1,26.4-13.2
	c7.3-3.4,15-6.4,23.1-7.2c4.7-0.4,9.1-1.7,13.4-3.5c6-2.6,10.9-6.5,14.2-12.2c1.2-2.1,1.5-4.4,0.4-6.6c-1-2.1-2-4.2-3.4-6.1
	c-6.4-8.8-8.4-19.1-9.3-29.5c-1.2-13.9-1.3-28,2.6-41.4c3.9-13.2,7.6-26.8,17.1-37.6c1.5-1.7,2.8-3.7,4-5.6c1.6-2.5,0.5-7.8-2.1-9.4
	c-2.5-1.5-5.1-2.8-7.8-3.7c-3.3-1.1-7-1.2-9.9-2.8c-6.9-3.7-14.1-4.4-21.8-4.7c-17.1-0.6-31.9,5.1-44.7,15.8
	c-7.7,6.3-16,11.5-24.4,16.5c-3.8,2.2-7.6,2.5-11.7,1.5c-12.1-3.2-22.3-9.4-30-19.5c-3.1-4.1-6.5-8.2-10.1-11.9
	C172,107,166.8,94.5,166,80c-0.3-5.5,1-10.2,5.1-14.2c4.2-4.1,8.7-7.6,14.2-9.7c12.5-4.6,24.7-9.9,37.5-13.6
	c10.5-3.1,21.5-4.6,32.3-6.3c3.2-0.5,7.1,0.1,10.1,1.5c7.3,3.4,14.3,7.6,21.4,11.5c1.5,0.8,2.7,2.1,3.9,3.4
	c5.1,5.6,10,11.3,15.1,16.7c3.6,3.8,6.6,8,8.7,12.9c4.9,11.6,13.3,20.2,23,27.8c4.1,3.2,8.5,6,12.8,9c3.6,2.4,6.4,2.4,9.6,0
	c3.2-2.4,6.4-5,9.6-7.4c14.1-10.5,29.7-15.3,47.3-12.6c5.3,0.8,10.2-0.4,15.1-2.9c20.5-10.4,42.8-13.8,65.4-15.8
	c13.4-1.2,26.5,2.1,39.6,4.4c2.7,0.5,5.2,2.3,7.7,3.8c2.9,1.8,5.7,3.9,8.4,5.8c10.7-0.4,21.1-0.7,31.2-1.1
	c9.3-15.3,16.9-33.9,19.7-48.1c1.1-5.8,0.8-11.4-1-17.1c-2.5-8.3,0.6-14.6,7.5-19.4c4.9-3.4,10-5.9,16.1-5.6c4.1,0.2,8-0.1,12-1.4
	c7.9-2.6,15.9-2.1,23.9,0.8c2.3,7.9,2.1,15.4-1.1,23.4c-7.8,19.4-11.9,39.9-17.7,59.9c-2.2,7.7-1.2,16.3-3.3,24
	c-2.7,10.4,0.3,19.3,3.9,28c8.9,3.2,14.3-1.8,18.3-7.4c4-5.6,7.6-11.7,8.7-18.8c0.8-5.3,3-9.9,5.7-14.4c2.4-3.9,4.4-8.2,6-12.5
	c2.5-6.8,6.8-12.1,12.4-16.4c13-9.9,26.8-18.2,43.5-20.4c9.2-1.3,18.2-3.3,27.4-4.7c8-1.2,16.1-1.1,24.3-0.3
	c11.4,1.1,21.2,5.9,29.6,13.4c3,2.7,6,5.7,7.8,9.2c6,11.3,11,23,10.9,36.2c0,5.2,0.2,10.5-0.3,15.6c-0.5,5.2-1.6,10.3-2.6,15.4
	c-2.9,14.4-12.9,22.9-25.1,29.1c-6.4,3.2-13.7,3.6-20-0.5c-10.6-6.9-21.8-13.3-29.6-23.8c-6-7.9-13.4-14.4-21-20.7
	c-4.9-4.2-10.6-6.8-16.5-9.4c-8.9-3.9-17-2-24.9,2.1c-9.4,4.9-17.6,11.7-22.9,20.8c-4.5,7.9-10.4,13.7-18.3,17.8
	c-0.9,0.5-1.3,1.9-1.9,2.8c0.3,1.1,0.3,2.3,0.8,3.2c7.1,11.6,11,24.1,10.9,37.8c0,1.7,0.1,3.5,0.5,5.2c3.6,15,1.9,30-0.4,44.9
	c-1.3,8.5-3.9,16.9-6.1,25.3c-0.4,1.6-1.4,3.2-2.6,4.4c-5.1,4.8-6.4,12.1-11.7,16.9c-2.3,2.1-0.9,7.8,2.1,9.1
	c12.7,5.4,21,16,30.1,25.6c5.6,5.9,10,12.7,12.7,20.5c2,6,4.5,11.9,6.8,17.9c1.2,3,3.2,4.2,6.8,4c3.5-0.2,6.9-0.5,10.4-0.6
	c7-0.3,13.8,0.4,20.5,2.9c6.5,2.4,13.2,4.2,19.8,6.2c10.1,8.2,21.6,6.8,33.1,4.9c6.3-1,12.4-2.8,18.7-3.8
	c32.7-4.8,64.6-13.1,96.6-21.3c3.9-1,7.7-2.2,11.7-3.1c0.9-0.2,2.4,0.5,3,1.3c0.6,0.7,0.8,2.3,0.4,3.1c-2.9,6.4-7.9,11.3-12.5,16.4
	c-13.5,15.2-28.6,28.5-44.5,41.2c-1.8,1.4-3.7,2.9-5.1,4.7c-1,1.2-1.4,3-2.1,4.7c5.1,4.1,10,8.2,15.1,12c4.3,3.2,7.5,7.1,10.4,11.5
	c8.9,13.9,14.7,28.8,15.6,45.5c0.5,10.1,3.3,19.5,10.5,26.9c5.2,5.3,11,10.3,17.2,14.6c7.6,5.2,15.8,9.6,23.8,14.3
	c1.5,0.9,3.1,1.5,4.8,1.9c10.6,2.9,21.2,5.7,31.8,8.6C991.1,559.3,995.6,563.3,999,569.6z M615.1,45.3c-0.9,0.7-2.2,1.2-2.5,2.1
	c-4.1,10.8-8.2,21.6-12,32.5c-2.1,6.2-2.1,12.5,0.1,19.1c7.4,5.1,14.6,10.9,23.1,14.6c0.5,0.2,1.1-0.1,1.7-0.2
	c0.4-1,1.2-2.1,1.2-3.1c0.8-20.6,7.2-39.8,15.3-58.4c2.8-6.5,4.5-13,5.4-19.9c0.3-2.4-1.7-4.3-4.1-4.4c-7.2-0.3-13.4,3.4-20.2,4.6
	c-3.8,0.7-5.9,3.5-7,7c-0.7,2.2-1.1,4.5-1.7,6.7L615.1,45.3z M698.8,391.2c-0.5,4.1-0.7,7.5-1.4,10.9c-0.1,0.7-1.9,1.4-2.8,1.4
	c-0.9,0-2.4-1.1-2.4-1.7c0-4.6,0.2-9.2,0.5-13.8c0.2-2.9,1.3-5.7,1-8.5c-1.3-13.3-3.9-26.2-10.8-38.1c-6.4-11.2-15.3-20.3-24.3-29.3
	c-2-2-4.8-3.2-7.3-4.6c-3.8-2.1-6.8-1.3-7.9,2.8c-1.2,4.6-3.3,8.7-5.8,12.5c-1.9,2.8-4.2,5.6-6.9,7.6c-10.3,7.7-21.3,14-34.3,15.8
	c-10.3,1.4-20.6,3.1-30.9,4.5c-3.4,0.5-6.9,0.3-10.4,0.3c-2.3,0-4.6,0-6.9-0.2c-5.2-0.4-8.9,2.1-11.9,5.9c-1.8,2.2-3.2,4.8-4.9,7.1
	c-4.5,6.1-10.4,8.9-18.1,7.4c-4.5-0.9-9.1-1.8-13.7-2.2c-12.3-0.9-23.6-5.4-35.3-8.6c-2.2-0.6-4.2-2-6-3.4c-5.6-4-8.9-9.1-7.5-16.3
	c1.3-6.7-2-11-7-14.6c-0.5-0.3-1-0.5-1.5-0.9c-14.2-9-27.8-18.7-38.4-32.1c-0.7-0.9-1.8-1.3-3.3-2.4c-11.7,0.9-23.6-0.4-35-5.4
	c-3.6-1.6-7.9-1.6-11.9-2.1c-4.6-0.5-9.2-0.5-13.8-1.1c-5.8-0.7-11.5,0-17.2,1.2c-13.6,2.9-26.7,7.7-40.5,9.3
	c-1.7,0.2-3.3,1.1-4.9,1.8c-7.7,3.9-15.7,7.5-23.1,11.9c-6.9,4.2-12.9,9.6-18.2,15.9c-18.9,22.4-23.5,48.3-20.1,76.5
	c0.1,1.1,0.4,2.3,0.8,3.4c3.8,10.3,7.2,20.8,14.2,29.5c0.7,0.8,1.1,2.1,1,3.1c-0.1,0.9-0.9,2.3-1.7,2.6c-2.4,0.7-4.6-0.1-6.3-1.8
	c-5-5.1-7.8-11.4-10.6-17.8c-1.9-4.3-4.6-6.1-9.8-3.4c-4.6,2.3-9.2,4.9-13.5,7.9c-3.3,2.3-6.6,4.9-9,8.1
	C170,445.5,162,462,160.9,481.1c-0.5,8.1-0.6,16.2-0.9,24.3c0,1.7,0,3.5,0.4,5.2c1.4,5.6,2.9,11.2,4.4,16.8
	c5.4,6.2,5.9,15.1,12,20.9c0.8,0.8,1.9,1.2,3.5,2.1c6.3-0.3,13.3-0.3,20-2c10.3-2.6,20.6-2.3,31-1.2c13.8,1.5,27.6,3.3,41.5,3.5
	c13.4,0.2,26.4,2,39.5,4.6c13.6,2.7,27.3,5.2,40.9,7.7c10.3,1.9,20.2,4.6,29.9,8.2c17.9,6.6,36.2,11.8,55.3,14.2
	c13.1,1.6,26,5.4,39.3,6.6c7.2,2.9,14.8,2.6,22.3,3c4.6,0.2,9.3,0.1,13.9,0.6c8.7,1,17.3,0.1,25.9-1.4c10.3-1.7,20.5-3.7,30.8-5.2
	c6.9-1,13.5-2.9,20.2-4.8c20.7-5.9,40.5-13.7,58.6-25.7c0.5-0.3,1-0.5,1.5-0.8c14.1-7.5,25-18.6,35.2-30.5
	c6.6-12.2,17.5-21.6,22.5-34.8c0.6-1.6,1.8-3,3-4.2c3.5-3.3,5.1-7.8,6.9-12c3.4-8,7.6-15.4,12.4-22.7c11.6-17.2,25.7-31.2,45.1-39.2
	c1.6-0.7,3-1.6,4.4-2.4c-0.1-1.3,0.2-2.6-0.3-3.6c-1-2.1-2-4.3-3.6-5.9c-6.5-6.6-13.2-13-20-19.2c-1.7-1.5-3.9-2.6-6-3.4
	c-3.8-1.5-7.6-2.8-11.5-4c-12-3.6-22.9-1.3-32.3,7C703.8,385.5,701.2,388.6,698.8,391.2z M902.4,524.1c-3.8,4.3-6.4,7.3-9.2,10.2
	c-2.8,2.9-6,5.5-8.6,8.6c-5.4,6.3-12.3,10.4-19.6,14c-8.9,4.4-18.3,7.2-27.9,9.3c-4.5,1-9.1,1.8-13.7,0.4c-0.4-0.1-1-0.6-1-0.9
	c0-0.5,0.2-1.4,0.5-1.6c2.6-1.2,5.1-2.8,7.8-3.2c9.3-1.6,17.6-5.6,26-9.5c14.4-6.6,23.1-18.8,29.7-32.6c1.5-3.1,2.5-6.6,2.7-10
	c0.5-8.1,0.7-16.2,0.6-24.3c0-3.4-0.8-6.9-1.8-10.2c-1.6-4.9-3.4-9.9-5.9-14.5c-6.7-12.4-15-23.5-28-29.9c-7.8-3.8-15.7-7.4-24-10.1
	c-13.8-4.5-28-7.1-42.6-2.9c-9,2.6-18.1,5.5-24.9,11.7c-13,11.6-24.2,24.8-32.2,40.5c-3.7,7.2-6.4,14.8-10,22
	c-6.2,12.4-13.5,24.2-20.5,36.2c-2,3.5-4.7,6.6-7.2,9.7c-3.3,4-6.8,7.8-10,11.9c-7.8,10.2-17,19.1-26.9,27
	c-8.5,6.8-18.5,11.7-27.9,17.4c-7,4.2-14.6,7-22.3,9.7c-4.5,1.5-9,2.2-13.6,2.2c-16.8-0.1-33.6-0.4-50.4-0.3
	c-12.8,0.1-25.5-0.2-38.1-2.6c-5.7-1.1-11.5-1.1-17.3-1.5c-9.2-0.7-18.5-1.5-27.3-4.1c-12.2-3.6-24.7-6.4-37.2-8.5
	c-11.5-1.9-22.6-4.9-33.5-8.7c-14.3-4.9-28.8-8.8-43.5-11.9c-10.2-2.1-20.4-4.2-30.6-6.1c-13.6-2.6-27.2-5.7-41.2-5.2
	c-5.2,0.2-10.4-0.7-15.6-1.1c-10.4-0.8-20.7-1.7-31.1-2.4c-18.3-1.2-36.1,2.2-52.2,10.5c-28.6,14.9-50.6,36.4-61.3,67.8
	c-0.9,2.7-1.3,5.6-1.6,8.4c-1.1,11,0.1,22,0.7,33c0.4,6.5,2,12.5,4.5,18.4c3.6,8.5,7.2,17,10.9,25.5c0.7,1.6,1.3,3.2,2.3,4.7
	c1.9,3,4.4,5.4,8.4,5.3c3.5-0.1,7,0.1,10.4-0.6c11.9-2.4,23.9-4.4,35.6-7.7c17.2-4.9,34.3-10.4,51.2-16.4c10.3-3.6,20.1-9,30.4-12.7
	c21.9-7.9,42.3-18.6,61.4-32c1.4-1,2.9-1.8,4.4-2.7c3-1.6,7-1.1,9.5,1.7c5.4,6,11.2,11.6,15.9,18.3c7,10,15.4,18.8,26.3,24.7
	c4.6,2.5,9.2,4.9,13.6,7.7c11.6,7.2,24.5,10.7,37.7,12.2c20.1,2.2,40.5,2.8,60.6,0.7c14.9-1.6,29.9-3.8,44.4-7.6
	c18.4-4.8,36.6-10.4,54.6-17c12.7-4.7,24-11.4,35-18.8c4.3-2.9,8.1-6.5,12.1-9.9c3.6-3,7.7-5.1,12.3-6.1c1.9-0.4,5.3,0.6,6.1,2.3
	c5,10.1,13.7,17.1,21.1,25.2c9.1,10,19.8,17.8,32.2,23.1c9,3.9,18,7.4,27.9,9.1c17.5,3.1,14.6,3.1,20.3-12.3c1-2.7,2.5-5.2,3.5-7.9
	c2.8-8.2,5.4-16.5,8-24.7c1.7-19.8,8-38.5,13.7-57.3c1.3-4.4,3.3-8.8,6-12.4c8.3-10.7,18.9-18.7,30.6-25.3
	c7.8-4.4,16.1-5.2,24.9-1.1c6.8,3.2,13.4,6.6,19.9,10.4c5.1,3,10.5,4.4,16.6,2.1c5.4-2,11.2-2.8,16.7-4.6
	c24.2-7.8,48.5-15.3,73.2-21.5c-0.2-2.9-1.6-4.4-4.1-5c-13.5-3.4-26.5-8.2-38.8-14.8c-5.1-2.7-10-5.6-14.3-9.7
	C912.7,532,908,528.6,902.4,524.1z M328.5,199.1c-1.8,10.8,0.6,21.1,2.1,31.3c0.4,2.8,1.6,5.6,3,8.1c8.1,14.3,18.4,26.6,32.3,35.7
	c8,5.2,16.7,7.9,26.2,7.6c9.8-0.3,19.7-0.5,29.5-0.8c1.7,0,3.5-0.2,5.1-0.7c14.4-4.3,28.9-8.5,41.9-16.5c3.4-2.1,6.9-4.2,10.5-6.1
	c3.1-1.7,6.3-2.2,10-1.2c10.2,2.7,19.6,7,28.3,13c11.7,8.1,24.7,12.6,38.7,14.5c15.3,2.1,30.1,1.4,43-8.6c1.4-1.1,3-1.7,4.5-2.6
	c18.7-11.7,29.9-28.9,35.1-49.8c2.5-10,3.1-20.6,4.4-30.9c1.9-14.7-0.9-28.8-5.3-42.7c-3-9.7-8.3-18-16-24.3
	c-10.3-8.4-21.5-15.6-34.3-19.9c-7.2-2.4-14.6-3.6-22.2-2.8c-5.7,0.6-11.5,1.4-17.3,1.6c-5.4,0.2-10.2,1.9-14.8,4.3
	c-4.6,2.4-9,5.2-13.6,7.6c-4.6,2.4-9.1,5.1-14,6.9c-14.7,5.6-29.2,6.5-43.3-2.1c-2-1.2-4-2.3-6.1-3.3c-14.2-6.8-28.9-11.7-44.7-13
	c-5.9-0.5-11.4,0.3-17.1,1.8c-12.1,3.2-22.2,9.4-30.6,18.6c-2.3,2.6-4.5,5.3-7.1,7.7c-9.4,9-15.1,20-20.4,31.7
	C330.9,175.7,328.3,187.2,328.5,199.1z M546.5,343.5c6.1,0,10.2,0.5,14.2-0.1c12.6-1.8,25.1-4,37.6-6c11.2-1.9,20.5-7.8,28.9-14.9
	c3.4-2.8,6.7-7,7.8-11.1c2.2-7.7,3.9-15.6,4.2-23.8c0.4-9.3-1.7-18.4-2.5-27.5c-0.2-2.2,0.3-5.2-2-6.1c-3.4-1.3-4.9,2.1-6.8,4.1
	c-2.7,3-5.1,6.2-7.9,9.2c-3.5,3.7-4.7,7.8-3,12.7c2.4,7.1,1.1,14-2.6,20c-5.3,8.4-12.1,15.4-22.2,18.3c-14.6,4.1-29.2,5.8-44.3,2.1
	c-10.1-2.4-20.3-4.2-29.7-8.9c-4.6-2.3-9-1.5-12.9,1.8c-2.6,2.2-5,4.7-7.3,7.3c-1.8,2-1.4,5.7,0.6,7.9c0.8,0.9,1.5,1.8,2.3,2.5
	c6.2,5.5,13.7,8.7,21.7,9.9C531.3,342.2,539.9,342.8,546.5,343.5z M512.6,362.5c0.4,0.1,2.7,0.3,5,0.6c0.6,0.1,1.1,0.2,1.7,0.3
	c1.9,0.1,4.4-2.4,4.4-4.4c-0.2-6.2-1.7-11-8.9-12.7c-4.4-1-8.5-3.5-12.5-5.8c-3.4-2.1-6.7-4.5-9.4-7.4c-5.4-5.7-5.2-10.2-0.6-17
	c3-4.5,7.1-7.7,11.9-9.7c4.2-1.7,8.7-2.7,13-4.2c0.4-0.1,0.7-1,0.7-1.5c0-0.4-0.5-1-0.9-1.1c-12.5-2.8-25.1-1.5-37.6,0
	c-2.4,0.3-4.2,1.9-5.1,4.2c-1.6,4.3-2.8,8.8-4.7,13c-2.5,5.8-5.4,11.5-8.2,17.2c-1.6,3.2-1.9,6.6-1.8,10.1c0.2,3.1,1.9,5.4,4.3,7.2
	c1.4,1,2.9,2,4.6,2.4C482.5,357.2,496.3,361.5,512.6,362.5z M652.3,10.6c-1-0.9-2.2-2.9-3.3-2.8c-9,0.5-18.1,0.9-27.1,2.2
	c-3.1,0.4-6,3.1-8.8,4.9c-1.6,1-1.8,4.3-0.6,6.2c1.6,2.4,3.3,4.7,6.7,4.4c9.8-0.8,18.6-4.9,27.7-8.1c1.5-0.5,2.8-2,3.9-3.2
	C651.4,13.3,651.7,12.1,652.3,10.6z"/>
<path id="XMLID_11775_" fill-rule="evenodd" clip-rule="evenodd" d="M300.4,692.8c0,1.7,0,3.5,0,5.4c-8.6,7.6-18.5,13.4-29,18.5
	c-8.3,4-17.2,6.8-24.7,12.4c-11.5,3.7-22.3,9.5-34.4,11.7c-8.5,1.5-16.8,4.2-25.3,6.2c-2.8,0.6-5.8,0.9-8.3-0.9
	c-0.8-0.5-1.1-1.8-1.5-2.9c-0.1-0.2,0.5-0.9,0.8-1c6.2-1.2,12.5-2.3,18.7-3.6c15.3-3.2,30.1-8,44.4-14.5c8.4-3.8,16.9-7.5,25.5-10.9
	c11.4-4.5,21.4-11.3,31.9-17.4c0.9-0.5,1.3-1.8,1.9-2.8L300.4,692.8z"/>
<path id="XMLID_11762_" fill-rule="evenodd" clip-rule="evenodd" d="M625.2,694.9c-0.1,1.1,0.2,2.6-0.4,3.1
	c-7.8,5.8-15.4,12.3-23.8,17c-15.6,8.7-31.7,16.3-48.4,22.6c-10.2,3.8-20.6,7.2-30.8,11c-6.7,2.5-13.4,3-20.4,2.5
	c-1.5-0.1-2.1-1-1.6-1.9c0.3-0.5,0.6-1.2,1-1.3c7.8-1.9,15.7-3.5,23.5-5.7c16.1-4.4,31.6-10.8,46.7-17.8c4.2-1.9,8.4-3.9,12.6-5.7
	c10.6-4.7,20.6-10.2,30-17c3.7-2.7,7.2-5.8,12-6.5C625.5,695.2,625.2,694.9,625.2,694.9z"/>
<path id="XMLID_11715_" fill-rule="evenodd" clip-rule="evenodd" d="M312.5,716.1c0,2.6-1.8,4.4-3.6,5.5c-4.9,3-10,5.8-15.1,8.4
	c-12.4,6.3-25.8,10-39.1,13.6c-0.9,0.2-2.4-0.4-3-1.1c-0.5-0.6-0.2-2,0-3c0.1-0.4,0.9-0.8,1.4-0.9c17.2-3.4,32.7-11.1,48.6-18.2
	c3.6-1.6,6.9-4.5,11.3-3.9L312.5,716.1z"/>
<path id="XMLID_11668_" fill-rule="evenodd" clip-rule="evenodd" d="M333.8,728.7c-0.2,0.5-0.2,1.1-0.5,1.5
	c-8.9,8.3-19.3,14.2-30.9,17.9c-0.4,0.1-1.4-0.3-1.5-0.6c-0.2-0.9-0.4-2.5,0-2.7c10.5-5.8,21.1-11.5,31.7-17.2
	C332.7,727.5,333.3,728.3,333.8,728.7z"/>
<path id="XMLID_11667_" fill-rule="evenodd" clip-rule="evenodd" d="M639.4,712.6c-0.1,0.6,0.1,1.4-0.3,1.7
	c-10.1,9.3-21.1,17.4-33.4,23.6c-0.5,0.3-1.8-0.7-2.6-1.2c-0.2-0.1,0.1-1.3,0.4-1.6c10.4-7.2,20.7-14.4,31.2-21.4
	c1.2-0.8,3.3-0.5,5-0.7L639.4,712.6z"/>
<path id="XMLID_11654_" fill-rule="evenodd" clip-rule="evenodd" d="M663.7,722.5c-0.1,0.5,0,1-0.2,1.4c-0.2,0.5-0.6,1-1.1,1.3
	c-10.6,5.6-21.2,11.1-31.7,16.6c-1.3,0.7-2.5,0.4-2.8-0.9c-0.2-0.9,0.4-2,0.9-2.9c0.2-0.5,0.8-0.8,1.3-1.1
	c10.1-6.6,21.1-11.1,32.4-15.2C662.7,721.6,663.3,722.2,663.7,722.5z"/>
<path id="XMLID_12885_" fill-rule="evenodd" clip-rule="evenodd" d="M800.2,525.6c-14.4,2.1-27.8-11.7-28.2-24.5
	c-0.1-4.6-0.2-9.2,0.1-13.8c0.1-2.2,0.9-4.6,1.8-6.6c3.2-6.8,7.5-13,13-18.3c2.4-2.3,5.8-3.7,8.8-5.4c1-0.6,2.2-0.7,3.3-1
	c15.9-3.7,25.3-1.6,38.2,9.7c5.2,4.6,8.2,11,7.7,18.5c-1.4,21.6-17.5,39.9-39.4,41.1C803.7,525.4,801.9,525.5,800.2,525.6z
	 M779.2,497.2c0-0.1,0.3,2.8,0.8,5.6c2,9.4,10.6,16,20.2,15.6c6.4-0.2,12.6-1.8,18.6-3.8c2.1-0.7,4.2-2,6-3.4
	c5.2-4,8.5-9.2,10.5-15.5c5.2-16.2,2.3-22.4-11-30.3c-12.5-7.4-33.2-5.4-41.3,12.1C780.5,482.9,778.8,488.3,779.2,497.2z"/>
<path id="XMLID_8072_" fill-rule="evenodd" clip-rule="evenodd" d="M234,582c-0.3,0.4-0.6,1-0.9,1c-4.6,0.1-9.2,0.2-13.8,0.2
	c-21.5-0.2-37.4,10.2-49.9,26.5c-4.2,5.5-6.8,12-7.1,19.2c-0.1,3.4-0.8,6.9-1.3,10.3c-0.7,4.3-3.5,7.3-7,9.4
	c-1.2,0.7-3.6,0.7-4.9-0.1c-1.2-0.7-2.5-2.8-2.3-4.1c1.6-12.7,5.1-24.8,11.5-36c2.3-4.1,5.2-7.7,8.8-10.6
	c10.5-8.4,22.2-14.5,35-18.5c9.5-3,19.3-3.1,29.1-1c1,0.2,1.8,1.3,2.5,2.1C234,580.8,233.9,581.5,234,582z"/>
<path id="XMLID_8071_" fill-rule="evenodd" clip-rule="evenodd" d="M636.4,624.8c-3.6-0.4-6.6-2-8.8-4.9c-0.5-0.7-0.2-2.3,0.2-3.1
	c0.5-0.9,1.5-1.7,2.5-2.3c2-1.1,4.2-2,6.3-2.8c14.5-5.1,26.3-14.4,37.8-24.1c12.9-10.9,23.9-23.5,31.8-38.6c0.8-1.4,3.7-2.3,4.3-1.2
	c0.6,1,1.1,2,1.3,3.1c0.2,1.1,0.4,2.5,0,3.4c-2,4.1-4,8.3-6.6,12.1c-2.2,3.3-5,6.4-7.9,9.2c-12.7,12.6-25.7,25-38.2,37.8
	c-5.5,5.6-11.9,9-19.3,11C638.7,624.8,637.6,624.7,636.4,624.8z"/>
<path id="XMLID_8070_" fill-rule="evenodd" clip-rule="evenodd" d="M222.4,601.5c0.1,0,1.3,0.1,2.4,0.4c0.5,0.1,1.5,0.6,1.4,0.8
	c-0.2,1-0.5,2.6-1,2.8c-4.4,1.3-8.9,2.2-13.3,3.3c-3.6,0.9-6.4,3-7.7,6.4c-3.2,8-6.4,16.1-3.4,25c0.3,0.8-0.4,2.1-0.8,3.1
	c-0.4,1.1-2.9,0.7-4.6-0.4c-2-1.3-3.6-3-4.2-5.3c-0.6-2.2-1.3-4.6-1-6.8c0.5-4,1.4-8,2.7-11.8c3.8-11,12-16.6,23.4-17.6
	C218,601.3,219.7,601.5,222.4,601.5z"/>
<path id="XMLID_8069_" fill-rule="evenodd" clip-rule="evenodd" d="M719.8,576.6c-0.2,1.1-0.1,2.4-0.6,3.2c-1.8,2.9-3.7,5.8-5.7,8.6
	c-6,8.4-11.8,16.9-18,25.2c-4.1,5.5-7.2,5.7-13.2,1.5c-1.3-0.9-1.3-3.4-0.1-4.4c0.4-0.4,0.7-0.9,1.2-1.2c13.4-7.7,23-18.9,30.1-32.4
	c0.5-0.9,1.5-1.8,2.5-2.2c0.8-0.3,2,0,3,0.3C719.4,575.4,719.5,576.2,719.8,576.6z"/>
<path id="XMLID_8068_" fill-rule="evenodd" clip-rule="evenodd" d="M902.4,548.3c-0.7-0.3-2.5-0.7-3.7-1.7c-2.4-1.8-1.5-5.9,1.3-6.9
	c1-0.4,2.3-0.4,3.4-0.4c2.2,0.1,4.5,2.5,4.4,4.4C907.6,545.8,905.3,548.3,902.4,548.3z"/>
<path id="XMLID_8067_" fill-rule="evenodd" clip-rule="evenodd" d="M880.6,566c-2.1,0.2-4.3-1.9-4.4-4c-0.1-3.5,2.7-6.1,6.4-5.8
	c1.8,0.2,3,1.2,3.4,2.9C886.7,562.5,884,565.8,880.6,566z"/>
<path id="XMLID_12876_" fill-rule="evenodd" clip-rule="evenodd" d="M625.9,196.9c0.1-3,0-2.4,0.1-1.9c1.5,15.7-4.2,29.5-11.4,42.9
	c-4,7.4-9.6,13.1-16.9,16.9c-9.8,5.1-20.1,8.8-31.3,9.6c-7,0.5-13.5-0.3-20.4-2.4c-10-3.1-19.8-6.6-28.4-12.5
	c-9.7-6.7-21.1-9.1-31.9-12.9c-3.4-1.2-7-0.9-10.1,0.8c-4.6,2.4-9.3,4.8-13.4,7.9c-14.7,10.9-31.2,17.6-49.1,20.4
	c-8.6,1.4-17.2,0.8-25.7-1c-6.6-1.4-12-4.5-16-9.6c-4.2-5.5-7.8-11.5-11.4-17.3c-0.9-1.4-1.4-3.2-1.6-4.9c-2-14.3-3.3-28.7-0.4-43.1
	c1.3-6.3,3.4-12.2,7.6-17.3c3.7-4.5,7.1-9.1,10.3-14c7.3-11.2,17.4-18.2,30.7-20.2c4.6-0.7,9.1-1.8,13.5-3.1
	c5.7-1.7,11.2-2.7,16.9-0.2c13.5-0.3,26.2,3.1,38.9,7.2c3.7,1.2,8.1,1.4,12,0.9c12-1.7,24-3.5,34.3-10.9c3.7-2.7,8.1-4.4,12-6.9
	c11.5-7.3,23.9-8,36.8-5.6c3.4,0.6,6.7,1.9,10.1,2.6c10,2,17.9,7,25.1,14.3c13.9,13.9,20.7,30.4,20.3,49.9
	C626.5,188.7,626.3,191,625.9,196.9z M619.9,189.1c-0.8-6.3-1.2-12.6-2.5-18.8c-2.7-12.9-10.2-23.2-19.9-31.7
	c-10.6-9.3-23-13.4-36.9-9.6c-8.3,2.2-16.4,5.2-23.2,11.2c-7.6,6.7-16.9,9.8-27.1,9.6c-6.4-0.1-12.8-0.5-19.1,0.2
	c-7.6,0.9-15.1,0.4-22.4-1.4c-8-2-16-2.3-24.1-2.5c-14.4-0.5-27.4,3.2-38.8,12.2c-3.6,2.9-7.8,5.1-11.2,8.2
	c-5.9,5.4-12.2,10.8-16.9,17.2c-4.7,6.4-7.7,14.1-11.4,21.3c-0.8,1.5-1.1,3.3-1.3,5c-1.5,11.3,0.6,21.5,8.1,30.9
	c4.9,6.2,10.3,10.7,17.6,13.3c4.4,1.5,8.7,3.4,13.4,2.8c11.4-1.5,22.9-2.7,33.7-7.5c6.4-2.8,12.4-6.2,17.9-10.4
	c5.6-4.3,11.8-7.5,18.8-8.5c8-1.2,15.9-2.7,23.7-4.7c7-1.8,13.8-0.4,19.8,3.8c3.3,2.3,6.8,4.5,9.6,7.4c8.5,8.6,19,12.4,30.6,14.7
	c14.6,2.8,27.4-1.2,39.9-7.8c3.6-1.9,6.4-5,8.5-8.5C615.1,221,620.5,205.9,619.9,189.1z"/>
<path id="XMLID_8064_" fill-rule="evenodd" clip-rule="evenodd" d="M375.7,132.2c0.6-3.2,3.2-4.6,5.7-5.7c5.6-2.6,11.4-4.7,17.2-6.8
	c0.7-0.3,1.9,0.6,2.9,1c-0.3,0.5-0.6,1-1,1.4c-2.1,2.1-4.9,2.4-7.7,3c-4.5,0.9-8.4,2.9-10.6,7.2l0.5-0.4c-2.5,0-5,0-7.5,0
	L375.7,132.2z"/>
<path id="XMLID_8063_" fill-rule="evenodd" clip-rule="evenodd" d="M389.8,131.7c1.1,0.4,2.4,0.5,3.1,1.2c0.6,0.6,0.9,2.6,0.6,2.8
	c-3.5,2.7-7.2,5.2-10.9,7.8c-3-0.7-1.5-3.6-2.6-5.2l-0.6,0.4c2.6-0.1,4-1.4,4-4.1l-0.6,0.5c3.4,0.3,6.2-0.4,7.6-4L389.8,131.7z"/>
<path id="XMLID_8059_" fill-rule="evenodd" clip-rule="evenodd" d="M627.8,303.1c-0.9-1.5-1.9-2.5-1.8-3.4
	c0.2-6.9,2.1-13.7,1.1-20.6c-0.1-0.5,1.6-1.7,2.2-1.6c0.9,0.3,2.1,1.3,2.2,2.2c0.4,2.8,0.9,5.8,0.4,8.5
	C631,293.1,629.3,297.9,627.8,303.1z"/>
<path id="XMLID_8058_" fill-rule="evenodd" clip-rule="evenodd" d="M474.8,331.3c0.3,3.4,0.5,6.7,0.8,10c0.2,1.7-0.5,2.3-2.1,1.6
	c-0.4-0.2-1-0.9-1-1.3c0.2-3.4,0.5-6.7,0.7-10C473.8,331.5,474.3,331.4,474.8,331.3z"/>
<path id="XMLID_8057_" fill-rule="evenodd" clip-rule="evenodd" d="M483.5,340.3c-0.2,1-0.3,2.7-0.9,4.2c-0.2,0.6-1.5,0.9-2.3,1.1
	c-0.1,0-0.8-0.9-0.8-1.3c0.1-2.2,0.1-4.4,0.5-6.5c0.2-0.8,1.3-1.5,2-2.2c0.5,0.8,1.1,1.6,1.5,2.4
	C483.7,338.5,483.5,339.1,483.5,340.3z"/>
<path id="XMLID_8056_" fill-rule="evenodd" clip-rule="evenodd" d="M617.5,45.8c1.7-0.2,3.4-0.6,5.1-0.4c0.8,0.1,2.1,1.6,2,2.2
	c-1.3,8.4-3.3,16.7-7.2,24.3c-0.2,0.3-1.2,0.4-1.6,0.2c-0.8-0.5-2.1-1.5-2-2c1.1-5,2.7-9.9,3.6-14.9c0.6-3.3,0.5-6.7,0.6-10.1
	C618.1,45.3,617.5,45.8,617.5,45.8z"/>
<path id="XMLID_8055_" fill-rule="evenodd" clip-rule="evenodd" d="M631.1,57.3c0.4,3.7-1.2,6.8-3.1,9.6c-0.6,0.9-1.5,1.5-2.2,2.3
	c-0.3-1.6-1.2-3.4-0.8-4.9c0.6-2.7,1.9-5.4,3.1-8c0.7-1.4,1.7-1.5,2.4-0.6C630.7,56.3,630.9,56.8,631.1,57.3z"/>
<path id="XMLID_7738_" fill-rule="evenodd" clip-rule="evenodd" d="M806.7,479.8c1,0.4,2.9,0.7,4.1,1.7c3.9,3,4.3,8.4,1.2,12.3
	c-2.5,3.2-7.1,3.7-10.9,1.3c-3-1.9-4.2-5.8-2.8-9.1C799.9,482.6,802.2,480.3,806.7,479.8z"/>
<path id="XMLID_7737_" fill-rule="evenodd" clip-rule="evenodd" d="M550.6,201.4c-5.4,0-8.5-1.3-10.3-4.7c-2-3.9-1.7-7.8,0.9-11.4
	c3.2-4.4,7.8-6.6,12.9-8c3.7-1,8.3,1.5,9.9,5.2c3,6.9,0.2,14.3-6.7,17.1C554.6,200.6,551.7,201.1,550.6,201.4z"/>
<path id="XMLID_7736_" fill-rule="evenodd" clip-rule="evenodd" d="M429.4,205.6c-5.7-0.3-9.7-6-8.2-11.2c1.4-4.6,4.1-8.3,8.4-10.4
	c4.6-2.2,9-1.3,13,1.6c3.5,2.6,3.5,10.1,0.1,14.1C439.1,204.2,434.5,206,429.4,205.6z"/>
</svg>
